<?xml version="1.0" encoding="UTF-8"?>
<!DOCTYPE svg PUBLIC "-//W3C//DTD SVG 1.1//EN" "http://www.w3.org/Graphics/SVG/1.1/DTD/svg11.dtd">
<!-- Creator: CorelDRAW 2020 (64-Bit) -->
<svg xmlns="http://www.w3.org/2000/svg" xml:space="preserve" width="1764.51mm" height="1984.1mm" version="1.1" style="shape-rendering:geometricPrecision; text-rendering:geometricPrecision; image-rendering:optimizeQuality; fill-rule:evenodd; clip-rule:evenodd"
viewBox="0 0 62786.9 70600.67"
 xmlns:xlink="http://www.w3.org/1999/xlink"
 xmlns:xodm="http://www.corel.com/coreldraw/odm/2003">
 <defs>
  <style type="text/css">
   <![CDATA[
    .str0 {stroke:white;stroke-width:333.36;stroke-miterlimit:22.9256;stroke-opacity:0.078431}
    .str1 {stroke:#00A0E3;stroke-width:6.28;stroke-miterlimit:22.9256}
    .fil6 {fill:none}
    .fil5 {fill:none;fill-rule:nonzero}
    .fil7 {fill:#FEFEFE}
    .fil10 {fill:#EE7A1B}
    .fil8 {fill:#113646}
    .fil9 {fill:#1B82A3}
    .fil0 {fill:#2A3F86}
    .fil11 {fill:#2B2A29;fill-rule:nonzero}
    .fil1 {fill:#113646;fill-rule:nonzero}
    .fil4 {fill:white;fill-rule:nonzero;fill-opacity:0.078431}
    .fil2 {fill:url(#id1);fill-rule:nonzero}
    .fil3 {fill:url(#id2);fill-rule:nonzero}
   ]]>
  </style>
      <clipPath id="id0">
       <path d="M-0 70600.67l62786.9 0 0 -70600.67 -62786.9 0 0 70600.67z"/>
      </clipPath>
  <linearGradient id="id1" gradientUnits="userSpaceOnUse" x1="31339.59" y1="7952.83" x2="31339.59" y2="62553.39">
   <stop offset="0" style="stop-opacity:0.0588235; stop-color:white"/>
   <stop offset="1" style="stop-opacity:0; stop-color:white"/>
  </linearGradient>
  <linearGradient id="id2" gradientUnits="userSpaceOnUse" xlink:href="#id1" x1="31339.6" y1="15599.92" x2="31339.6" y2="54687.92">
  </linearGradient>
 </defs>
 <g id="Слой_x0020_1">
  <metadata id="CorelCorpID_0Corel-Layer"/>
  <g id="_2204416027488">
   <g id="_2217544304224">
    <g id="_2459664285040">
     <polygon class="fil0" points="-0,70600.67 62786.9,70600.67 62786.9,0 -0,0 "/>
     <polygon class="fil0" points="-0,70600.67 62786.9,70600.67 62786.9,0 -0,0 "/>
     <polygon class="fil0" points="-0,70600.67 62786.9,70600.67 62786.9,0 -0,0 "/>
     <g>
     </g>
     <g style="clip-path:url(#id0)">
      <g>
       <rect class="fil1" width="62786.89" height="70600.67"/>
       <circle class="fil2" cx="31347.21" cy="35300.14" r="27302.59"/>
       <circle class="fil3" cx="31414.6" cy="35233.05" r="19520.82"/>
       <polygon class="fil4" points="4872.12,8273.33 10387.98,8273.33 10387.98,2757.98 4872.12,2757.98 "/>
       <polygon class="fil5 str0" points="7796.88,10864.41 12978.97,10864.41 12978.97,5682.34 7796.88,5682.34 "/>
       <path class="fil4" d="M65338.16 52905.59c-860.8,-119.75 -1737.2,-69.17 -2578.15,149.59 -841.34,218.75 -1631.18,600.93 -2324.7,1125 -693.43,523.97 -1277.06,1179.46 -1717.25,1928.7 -440.08,749.65 -728.49,1578.42 -848.25,2439.22 -120.15,860.8 -69.17,1736.82 149.59,2578.15 218.35,841.34 600.55,1631.18 1124.91,2324.7 523.57,693.43 1179.05,1277.17 1928.7,1717.25 749.35,440.18 1578.13,728.49 2439.33,848.25l912.67 -6555.19 913.16 -6555.69 0 0 0 0.02z"/>
      </g>
     </g>
     <polygon class="fil6" points="-0,70600.67 62786.9,70600.67 62786.9,0 -0,0 "/>
     <polygon class="fil6" points="-0,70600.67 62786.9,70600.67 62786.9,0 -0,0 "/>
     <polygon class="fil6" points="-0,70600.67 62786.9,70600.67 62786.9,0 -0,0 "/>
     <polygon class="fil6" points="-0,70600.67 62786.9,70600.67 62786.9,0 -0,0 "/>
    </g>
   </g>
  </g>
  <g>
   <path class="fil6 str1" d="M33374.12 42711.68c-4794.74,872.85 -9389.19,-2306.45 -10262.03,-7101.19 -872.85,-4794.74 2306.45,-9389.19 7101.19,-10262.04 4794.74,-872.84 9389.19,2306.46 10262.03,7101.2 872.85,4794.74 -2306.45,9389.19 -7101.19,10262.03z"/>
   <path class="fil7" d="M31789.18 23362.49c5895.62,0 10674.97,4779.34 10674.97,10674.97 0,5895.62 -4779.35,10674.97 -10674.97,10674.97 -5895.62,0 -10674.97,-4779.34 -10674.97,-10674.97 0,-5895.62 4779.35,-10674.97 10674.97,-10674.97z"/>
   <path class="fil6 str1" d="M31789.21 23776.89c5666.74,0 10260.54,4593.8 10260.54,10260.54 0,5666.73 -4593.8,10260.54 -10260.54,10260.54 -5666.73,0 -10260.54,-4593.8 -10260.54,-10260.54 0,-5666.74 4593.8,-10260.54 10260.54,-10260.54z"/>
   <path class="fil6 str1" d="M37329.68 25634.33c4640.91,3059.91 5922.57,9302.66 2862.66,13943.57 -3059.91,4640.91 -9302.66,5922.57 -13943.57,2862.66 -4640.91,-3059.91 -5922.56,-9302.65 -2862.66,-13943.57 3059.92,-4640.91 9302.66,-5922.56 13943.57,-2862.66z"/>
   <g id="_2204415992784">
    <path class="fil8" d="M24566.88 37124.26c183.55,-25.75 885.34,-317.34 1853.69,-426.39 727.89,-81.97 1431.46,-71.43 2144.4,49.18 1323.79,223.96 2142.88,683.91 3224.21,1388.24 1175.8,-703.64 1784.26,-1143.52 3208.38,-1385.6 1180.43,-200.67 2421.64,-103.95 3570.5,238.25 109.14,32.51 351.25,123.39 443.43,136.32 -365.83,-508.19 -1491.93,-853.34 -2095.7,-944.38 -1885.84,-284.37 -3472.97,164.19 -5126.6,1048.03 -509.35,-239.83 -872.62,-476.06 -1441.14,-673.55 -1545.81,-536.99 -4558.23,-810.96 -5781.17,569.9z"/>
    <path class="fil9" d="M26353.68 35505.5c199.15,3.38 502.74,-44.59 720.76,-58.48 1165.09,-74.23 2278.45,93.26 3329.46,571.44 175.08,79.66 340.88,176.88 503.25,272.74 177.09,104.55 317.64,225.54 476.79,322.17 -68.68,-77.71 -167.4,-147.28 -262.93,-222.59 -250.71,-197.65 -591.4,-425.24 -882.52,-577.78 -1287.97,-674.84 -2546.45,-883.05 -4012.32,-713.8 -269.54,31.12 -238.33,-0.37 -115.84,146.12 74.93,89.61 159.16,174.46 243.36,260.19z"/>
    <path class="fil9" d="M33120.96 35937.93c-44.4,63.34 -680.11,438.6 -800.73,603.79 83.61,-45.97 132.89,-100.76 221.34,-132.66 68.9,-124.99 853.11,-491.9 1048.47,-567.11 1165.44,-448.69 2369.51,-509.52 3610.61,-365.6 99.35,11.52 89.76,15.67 141.29,-42.18 94.25,-105.8 259.56,-265.6 292,-336.16 -925.06,-86.58 -1633.53,-133 -2540.96,63.89 -530.84,115.18 -1045.17,292.4 -1516.65,536.26 -99.61,51.52 -390.06,226.34 -455.37,239.78z"/>
    <path class="fil9" d="M32719.63 36494.03l-377.75 243.51c-60.84,38.68 -96.63,46.41 -120.97,102.12 187.24,-86.4 355.85,-201.68 559.74,-290.53 680.01,-296.33 1215.23,-458.4 1988.1,-564.44 795.82,-109.2 1609.99,-94.98 2410.92,-11.98 127.84,13.24 252.39,29.11 377.75,46.51 39.87,5.54 161.79,28.24 190,26.57 70.58,-4.2 32.68,-21.79 112.29,-85.75 22.28,-86.72 101.61,-145.16 140.74,-235.68 -3299.23,-554.18 -5126.63,757.02 -5280.82,769.68z"/>
    <path class="fil9" d="M25780.11 35975.26c46.88,23.52 41.23,18.53 50.86,73.44 110.71,58.13 560.39,-42.55 731.48,-59.25 1528.85,-149.29 2950.51,-28.36 4352.38,608.7l434.55 192.58c-53.18,-33.35 -79.85,-52.86 -133.95,-87.08 -90.11,-56.99 -196.73,-118.65 -292.15,-170.16 -1151.35,-621.53 -2264.42,-906.59 -3608.22,-914.47 -276.11,-1.62 -1485.88,48.05 -1662.91,141.24 37.13,78.66 94.2,125.31 127.95,215z"/>
    <path class="fil10" d="M31580.34 35612.97c0,0 -314.62,-1180.23 -441.13,-1683.53 -69.28,-38.18 -1667.92,182.89 -2284.44,-200.32 -35.33,19 -75.73,29.79 -118.66,29.79 -138.54,0 -250.86,-112.31 -250.86,-250.86 0,-138.54 112.31,-250.86 250.86,-250.86 8.54,0 16.98,0.42 25.3,1.26 116.73,-153.41 349.97,-313.06 669.57,-465.3 -563.04,-461.88 -930.02,-892.99 -1006.55,-1201.47 -106.96,-28.69 -185.71,-126.29 -185.71,-242.3 0,-138.54 112.32,-250.86 250.86,-250.86 70.32,0 133.87,28.95 179.42,75.56 443.05,-132.18 1403.77,101.46 2510.45,607.41 15.37,-42.13 28.16,-86.56 43.73,-127.69 8.04,-21.25 63.92,47.26 72.61,26.53 9.07,-21.65 -28.98,-132.56 -19.18,-153.57 52.46,-112.49 115.6,-215.64 191.26,-304.89 611.73,-721.56 1257.3,-1039.56 1872.68,-1203.25 615.38,-163.69 757.27,-28.77 693.35,12.29l-542.89 348.67c0,0 79.75,44.55 55.9,92.82 -23.84,48.26 -449.03,331.77 -449.03,331.77 0,0 166.19,6.5 84.35,110.48 -427.23,386.12 -650.57,635.95 -884.79,1146.19 1083.27,-117.83 1980.03,-49.33 2358.48,172.49 37.59,-22.46 81.52,-35.38 128.49,-35.38 138.54,0 250.86,112.31 250.86,250.86 0,138.55 -112.31,250.86 -250.86,250.86 -3.05,0 -6.07,-0.08 -9.09,-0.18 -151.51,211.45 -527.19,435.6 -1047.66,636.42 574.3,468.47 948.36,906.29 1024.19,1218.05 100.33,32.82 172.82,127.17 172.82,238.46 0,138.55 -112.32,250.86 -250.86,250.86 -68.5,0 -130.57,-27.46 -175.84,-71.97 -499.18,141.57 -1633.36,-166.9 -2894.16,-797.7 -43.46,162.16 -82.66,325.86 -118.87,490.65 -31.96,95.63 125.66,642.81 95.42,948.71zm-471.08 -1804.62c-11.07,-45.85 -18.39,-78.18 -20.89,-92.96 -69.75,-412.57 -68.89,-946.1 -23.76,-1358.12 -153.52,30.7 -412.42,99.15 -582.4,147.84 -296.82,85.03 -595.4,185.5 -878.98,309.85 118.08,93.23 238.55,183.09 359.65,269.78 367.12,262.79 752.28,503.34 1146.38,723.61zm44.63 -1938.21c-121.41,-55.63 -243.72,-109.16 -366.83,-160.38 -352.79,-146.77 -720.19,-278.91 -1091.06,-372.06 -249.39,-62.64 -545,-120.14 -803.13,-106.8 -49.3,2.55 -111.19,8.68 -171.06,23.5 12,29.3 18.63,61.37 18.63,94.99 0,127.9 -95.72,233.44 -219.42,248.9 16.58,54.07 40.8,105.58 62.43,146.39 117.9,222.4 319.17,441.2 498.37,615.89 139.69,136.18 287.98,266.06 440.99,390.09 410.84,-184.6 947.14,-356.13 1553.72,-489.54 19.04,-134.12 43.23,-259.51 77.37,-390.97zm1101.49 287.16c-19.78,47.86 -38.46,96.94 -55.89,147.43 551.68,313.86 1043.83,645.47 1445.99,965.04 115.79,-43.64 230.06,-90.62 341.77,-141.47 202.61,-92.22 434.2,-213.03 601.71,-361.4 27.07,-23.97 59.72,-55.36 89.09,-90.86 -85.38,-40.02 -144.51,-126.72 -144.51,-227.25 0,-56.69 18.81,-108.99 50.54,-151 -21.22,-11.24 -41.87,-20.88 -60.29,-28.89 -199.76,-86.84 -454.56,-126.25 -670.04,-147.75 -327.02,-32.62 -663.15,-31.64 -991.08,-14.58 -202.6,10.69 -405.28,27.78 -607.3,50.71zm-84.78 236.18c-17.03,55.65 -32.55,112.99 -46.39,172.23 -16.09,68.85 -14.78,87.24 -63.91,128.56 -85.33,82.93 -146.57,162.38 -160.82,235.03 -10.89,55.51 62.3,53.62 59.83,153.17 -4.64,43.96 -14.57,88.32 -30.16,133.13 -75.31,176.05 -141.65,355.37 -200.96,537.24 44.96,-7 89.87,-14.25 134.7,-21.76 397.6,-66.56 793.74,-153.29 1181.35,-264.33 167.42,-47.96 335.39,-100.84 500.92,-160.13 -109.37,-85.61 -220.64,-168.37 -332.48,-248.42 -334.65,-239.59 -684.3,-460.63 -1042.09,-664.72zm-473.39 1456.6c-24.11,77.5 -47.03,155.44 -68.88,233.76 249.37,125.27 503.01,242.35 760.17,349.34 352.79,146.77 720.19,278.91 1091.06,372.07 249.39,62.64 545,120.14 803.13,106.8 46.38,-2.4 103.91,-7.97 160.41,-20.96 -12.98,-30.29 -20.17,-63.64 -20.17,-98.68 0,-131.82 101.69,-239.89 230.9,-250.07 -16.56,-53.23 -40.4,-103.84 -61.72,-144.06 -117.91,-222.4 -319.17,-441.2 -498.37,-615.89 -146.93,-143.24 -303.36,-279.5 -464.81,-409.32 -488.19,179.42 -1091.49,337.81 -1750.95,448.2 -60.62,10.15 -120.9,19.75 -180.78,28.82zm-135.2 302.49c-52.79,-26.66 -105.78,-53.82 -158.96,-81.59l54.46 578.06 104.5 -496.47zm-347.02 -331.79c11.44,-1.24 22.88,-2.49 34.31,-3.77 20.95,-105.7 -5.73,-363.68 -0.99,-476.09 37.55,-894.2 240.66,-1507.77 776.77,-2197.13 43.39,-55.76 81.97,-86.81 126.69,-140.56 43.09,-51.8 231.24,-253.04 289.52,-237.35 12.74,51.15 -59.95,92.28 -95.52,132.37 -37.15,41.9 -84.67,88.51 -119.54,131.91 -709.45,883.3 -844.27,1602.19 -846.27,2771.45 91.24,-11.32 182.33,-23.79 273.19,-37.33 28.1,-50.51 39.23,-151.14 115.28,-361.08 45.88,-126.6 140.4,-271.77 71.44,-384.36 -88.8,-144.96 50.3,-261.2 113.17,-343.19 105.85,-138.05 101.32,-248.58 143.67,-391.12 86.5,-291.07 185.47,-483.51 326.17,-711.22l274.81 -370.68c51.77,-58.06 159.09,-150.34 197.74,-212.68 -80.14,7.24 -136.76,36 -206.41,17.68 0.28,-88.07 124.89,-150.5 249.03,-240.65 67.61,-49.11 227.86,-159.83 267.96,-211.5 -62.37,6.78 -91.35,25.19 -140.54,-5.85 8.34,-69.76 146.36,-127.27 270.67,-217.7 71.38,-51.91 228.71,-147.96 277.74,-204.92 -452.28,23.98 -1099.86,322.09 -1465.29,574.24 -242.4,167.27 -809.83,739.52 -775.48,990.89 12.08,88.41 35.57,140.29 27.38,192.23 -15.99,101.55 -93.24,-2.16 -126.76,-29.51 -173.33,291.5 -228.01,1759.76 -58.72,1965.94zm177.71 141.65c62.79,33.16 125.86,65.84 189.22,97.99l45.16 -144.85 -242.14 34.16c1.97,4.23 4.6,8.47 7.76,12.7zm-407.89 -119.31c-564.52,-320.61 -1067.04,-659.89 -1474.96,-986.1 -195.33,90.41 -412.9,206.67 -572.38,347.93 -24.9,22.05 -54.52,50.38 -81.97,82.41 78.3,42.45 131.47,125.36 131.47,220.68 0,60.48 -21.4,115.96 -57.05,159.27 25.52,14.17 50.73,26.07 72.72,35.63 199.76,86.84 454.56,126.25 670.04,147.75 327.02,32.62 663.15,31.64 991.08,14.58 107.03,-5.57 214.09,-13 321.05,-22.15z"/>
   </g>
   <path class="fil6 str1" d="M39521.49 37094.03c-1688.1,4270.45 -6518.43,6363.84 -10788.88,4675.73 -4270.45,-1688.1 -6363.83,-6518.43 -4675.73,-10788.88 1688.1,-4270.45 6518.43,-6363.84 10788.88,-4675.73 4270.45,1688.1 6363.83,6518.43 4675.73,10788.88z"/>
   <g id="_2204415990240">
    <path class="fil11" d="M24983.57 34942.15l64.66 452.45 -45.61 6.52c-4.65,-21.17 -12.03,-45.63 -22.15,-73.57 -10.32,-27.93 -19.98,-41.24 -28.98,-39.95 -3.2,0.46 -6.55,1.34 -10.46,2.52 -3.95,0.97 -8.89,3.51 -15.32,7.09l-163.01 96.16 41.16 288.03c17.14,4.28 36.98,8.8 59.72,13.71 22.74,4.92 42.95,9.18 60.78,12.54 23.06,4.26 39.49,6.4 49.49,6.4 10.21,-0.03 17.09,-0.4 21.09,-0.97 12.4,-1.77 21.86,-12.72 27.95,-32.98 6.08,-20.25 7.94,-52.97 5.63,-97.75l45.6 -6.52 48.71 340.83 -45.61 6.52c-2.63,-12.69 -6.71,-27 -12.43,-42.72 -5.51,-15.74 -11.95,-27.89 -19.29,-36.43 -11.69,-14.66 -25,-26.43 -40.41,-35.66 -15.2,-9.26 -32.72,-16.14 -52.58,-20.86 -116.26,-29.51 -232.77,-59.19 -349.67,-88.82 -116.73,-29.85 -245.52,-62.68 -386.19,-98.7l-16.72 -117.01c177.5,-103.33 317.94,-184.64 421.18,-243.48 103.21,-59.04 188.76,-108.82 256.22,-149.49 11.06,-6.89 20.75,-14.81 29.24,-23.98 8.49,-9.17 15.89,-21.66 22.43,-37.29 4.86,-11.71 7.63,-25.18 8.77,-40.03 0.95,-14.83 1.05,-28.32 0.2,-40.03l45.6 -6.52zm-273.92 482.67l-286.88 164.9 321.35 76.33 -34.47 -241.23zm-102.64 -1247.1c17.62,-25.09 39.64,-45.49 66.05,-61 26.41,-15.51 57.4,-23.1 92.96,-22.76 42.63,0.41 78.51,9.64 107.84,27.9 29.13,18.26 52.12,44.34 68.78,78.04 17.85,35.53 30.18,76.66 37.22,123 7.03,46.54 10.35,101.13 9.76,163.76l-4.14 436.21 -46.07 -0.44c-1.1,-12.34 -2.76,-27.71 -4.81,-46.51 -2.25,-18.62 -4.96,-31.58 -7.91,-39.28 -5.92,-14.61 -13.51,-24.78 -23.16,-30.12 -9.65,-5.54 -22.15,-8.29 -37.5,-8.44l-592.19 -5.62c-14.35,-0.13 -26.08,1.97 -35.62,6.13 -9.54,4.36 -17.93,14.78 -25.16,31.29 -5.37,12.27 -9.75,26.58 -13.13,42.71 -3.59,16.33 -6.35,30.45 -8.49,42.76l-46.07 -0.44 4.33 -456.02c1.09,-114.76 17.64,-197.45 49.63,-247.86 32.21,-50.61 78.92,-75.63 140.54,-75.05 28.29,0.27 53.29,6.16 74.6,17.88 21.51,11.52 39.95,28.06 55.5,49.63 14.37,19.33 26.88,42.49 37.13,69.46 10.45,26.77 19.07,55.74 25.85,86.52l11.52 0.11c3.32,-30.89 10.49,-62.74 21.31,-95.78 10.62,-33.05 24.43,-61.8 41.23,-86.1zm-254.96 187.53c-46.67,-0.44 -83.16,12.34 -109.48,38.36 -26.31,26.03 -39.62,65.31 -40.12,118.03 -0.07,7.48 0.04,17.18 0.53,29.3 0.49,12.13 1,22.44 1.32,31.14l311.56 2.96 0.29 -30.91c0.6,-64.05 -13.9,-111.27 -43.31,-142.06 -29.62,-30.79 -69.88,-46.33 -120.8,-46.81zm404.68 -37.38c-58.39,-0.56 -103.41,16.4 -135.06,50.85 -31.64,34.45 -47.68,84.21 -48.3,149.47 -0.07,7.47 0.04,17.38 0.52,29.91 0.49,12.33 1.01,21.63 1.36,27.49l307.92 2.92c14.58,-3.5 27.01,-14.29 37.29,-32.79 10.28,-18.49 15.54,-40.87 15.79,-67.34 0.45,-47.08 -14.95,-85.41 -46.39,-115.21 -31.23,-29.59 -75.75,-44.77 -133.13,-45.32zm-449.07 -1329.09c-0.06,11.58 0.72,28.33 2.54,50.29 1.61,22.14 6.83,41.01 15.26,56.59 8.16,16.16 24.66,28.76 49.49,37.62 24.61,9.04 62.64,16.31 113.44,21.96l310.26 34.48c91.37,10.15 161.23,49.22 209.97,117.46 48.73,68.23 67.52,153.47 56.18,255.48 -13.23,119.09 -50.39,208.27 -111.23,267.38 -60.87,59.31 -139.39,83.52 -235.38,72.85l-426.54 -47.4c-13.65,-1.52 -25.79,-0.22 -36.21,3.9 -10.24,4.36 -20.19,13.41 -29.68,27.4 -6.36,9.66 -11.76,21.67 -16.62,36.17 -4.66,14.53 -8.21,26.34 -10.47,35.64l-45.78 -5.09 48.47 -436.18 45.78 5.09c-0.6,12.74 -0.6,25.55 0.15,38.84 0.76,13.3 2.53,26.71 5.25,40.63 3.17,15.4 9.89,26.31 20.14,32.74 10.49,6.24 22.45,10.22 36.31,11.76l420.91 46.77c82.74,9.19 145.02,-2.39 186.63,-34.76 41.63,-32.58 66.41,-83.49 74.15,-153.18 7.61,-68.48 -7.11,-124.4 -44.36,-167.98 -37.24,-43.58 -96.33,-69.86 -177.05,-78.83l-282.75 -31.42c-50.2,-5.58 -88.14,-6.33 -113.8,-2.27 -25.67,4.06 -44.72,12.71 -57.33,25.55 -9.57,9.31 -19.36,26.11 -29.41,50.61 -9.84,24.52 -16.02,41.73 -18.77,51.79l-46.99 -5.23 40.43 -363.88 46.99 5.22zm1165.34 -1126.23l-98.69 306.58c-98.06,27.01 -176.8,50.06 -236.02,69.84 -59.35,19.52 -128.8,45.36 -208.66,77.17l-10.22 31.74 242.53 78.08c13.47,4.33 25.62,5.49 36.71,3.32 11.04,-1.97 22.08,-9.23 33.01,-21.43 5.36,-6.12 12.09,-16.48 20.06,-30.68 8.16,-14.14 14.49,-26.55 19.17,-37.13l43.85 14.12 -137.45 426.98 -43.85 -14.12c2.37,-11.34 5.48,-26.26 9.13,-44.82 3.64,-18.57 5.22,-32.07 4.62,-40.75 -1.38,-16.15 -5.79,-28.18 -13.41,-36.16 -7.69,-7.78 -18.61,-14.06 -32.84,-18.63l-564.3 -181.67c-13.66,-4.4 -25.49,-5.87 -35.83,-4.74 -10.41,1.32 -21.51,8.79 -33.32,22.39 -8.9,10.51 -17.52,23.44 -26.25,38.68 -8.59,15.49 -15.24,27.57 -19.82,36.5l-43.85 -14.12 144.57 -449.1c32.32,-100.41 72.61,-171.49 120.74,-213.52 48.13,-42.03 104,-52.7 167.66,-32.21 55.97,18.02 95.97,48.72 119.67,91.8 23.71,43.08 34.46,100.67 32.52,172.64 41.32,-14.92 89.19,-32.42 143.61,-52.47 54.43,-20.04 110.44,-41.07 167.66,-63.2 18.4,-7.02 41.36,-17.04 69.02,-30.42 27.59,-13.19 46.37,-26.68 56.2,-40.71 5.48,-7.79 11.31,-18.01 17.31,-30.72 6.2,-12.66 10.44,-21.9 12.63,-27.36l43.85 14.12zm-718.03 191.67c-53.47,-17.21 -97.34,-14.77 -131.62,7.3 -34.46,22.02 -60.58,60.94 -78.42,116.34l-14.43 44.82 335.81 108.11 13.87 -43.08c17.89,-55.58 17.28,-103.12 -1.92,-143.05 -19.2,-39.93 -60.21,-70.12 -123.3,-90.43zm1158.37 -1082.14l-202.64 409.66 -41.29 -20.42c8.13,-20.1 15.9,-44.44 23.36,-73.21 7.29,-28.86 6.85,-45.3 -1.29,-49.33 -2.9,-1.43 -6.16,-2.6 -10.05,-3.85 -3.8,-1.43 -9.32,-2.13 -16.64,-2.81l-188.82 -12.93 -129 260.8c11.71,13.23 25.51,28.17 41.49,45.09 15.98,16.92 30.22,31.86 43.02,44.72 16.61,16.56 28.95,27.62 37.19,33.28 8.43,5.75 14.32,9.34 17.94,11.13 11.23,5.56 25.22,1.88 41.7,-11.38 16.48,-13.27 36.52,-39.19 59.94,-77.43l41.29 20.42 -152.65 308.61 -41.29 -20.42c5.01,-11.96 9.74,-26.08 13.91,-42.26 4.36,-16.1 5.93,-29.76 4.71,-40.96 -1.35,-18.7 -5.67,-35.94 -13.14,-52.26 -7.3,-16.24 -17.85,-31.81 -31.56,-46.94 -79.18,-90.11 -158.45,-180.49 -238.09,-271.06 -79.37,-90.65 -167,-190.58 -262.61,-299.87l52.4 -105.95c204.82,15.21 366.62,27.61 485.04,37.49 118.51,9.7 217.21,17.06 295.85,21.69 13.01,0.58 25.48,-0.48 37.66,-3.23 12.19,-2.76 25.35,-8.87 39.59,-18.06 10.64,-6.91 20.53,-16.45 29.88,-28.05 9.17,-11.7 16.89,-22.76 22.81,-32.9l41.29 20.43zm-498.93 243.04l-329.85 -26.32 221.8 244.74 108.04 -218.42zm327.24 -1392.46c-6.71,12.55 -12.02,24.85 -15.86,36.45 -3.79,11.87 -6.23,23.94 -7.06,36.14 -1.84,19.36 -0.48,38.73 4.35,58.03 4.55,19.36 10.83,39.42 18.5,59.94 16.32,42.48 34.62,87.8 54.76,136.11 20.15,48.32 42.4,101.04 67.11,158.41 15.3,36.85 28.99,62.53 41.02,76.75 11.92,14.38 36.14,34.06 72.38,59.11l98.06 67.79c11.64,8.05 23.27,12.89 35.06,14.66 11.91,1.6 24.8,-1.76 38.79,-10.27 6.12,-3.88 17.15,-13.45 33.11,-28.7 16.11,-15.14 27.23,-26.61 33.76,-34.63l37.9 26.2 -265.41 383.94 -37.89 -26.2c5.53,-9.44 13.28,-23.48 23.18,-41.71 9.72,-18.33 15.56,-31.74 17.61,-40.39 3.12,-15.52 1.94,-28.38 -3.61,-38.84 -5.65,-10.3 -14.63,-19.7 -26.93,-28.2l-121.83 -84.21c-10.63,-7.36 -20.23,-13.73 -28.6,-19.03 -8.38,-5.29 -15.99,-8.84 -22.74,-10.81 -7.76,-1.92 -18.5,-3.45 -31.77,-4.52 -13.43,-1.18 -30.84,-2.65 -52.05,-4.3 -61.23,-5.23 -119.44,-9.86 -175.03,-13.65 -55.42,-3.68 -107.72,-6.92 -156.72,-9.59 -25.65,-1.28 -47.64,-0.02 -66.31,3.53 -18.62,3.84 -35.24,9.05 -50.21,16.14 -11.07,5.36 -22.09,13.47 -33.36,24.09 -11.11,10.75 -20.58,20.9 -28.26,30.58l-37.9 -26.2 273.68 -395.9 37.9 26.2c-24.16,37.08 -38.56,63.25 -43.3,78.63 -4.69,15.67 -3.41,25.89 3.74,30.83 3.49,2.41 12.36,4.87 26.38,7.68 13.86,2.7 36.34,5.71 67.05,9.25 28.81,3.46 68.87,7.33 120.64,11.68 51.77,4.34 112.85,8.74 183.34,13.01 -55.11,-129.22 -94.12,-218.83 -117.04,-268.81 -22.76,-49.87 -38.59,-77.77 -47.41,-83.86 -11.13,-7.7 -24.16,-6.63 -39.44,2.7 -15.24,9.61 -34.06,29.02 -56.75,58.29l-37.9 -26.19 177.17 -256.3 37.9 26.2zm1317.32 -282.45l-309.42 333.07 -33.75 -31.35c6.15,-7.81 15.16,-19.29 26.9,-34.3 11.89,-14.88 19.05,-26.15 21.5,-33.53 5.6,-14.65 6.7,-27.41 3.46,-38.16 -3.39,-10.6 -10.5,-21.06 -21.45,-31.23l-212.57 -197.48 -245.07 263.79 207.69 192.94c9.92,9.22 20.73,15.39 32.42,18.25 11.7,3.15 24.5,1.53 38.29,-4.41 7.45,-3.57 18.63,-10.56 33.68,-21.4 15.02,-11.13 26.69,-20.42 35.12,-28.31l33.75 31.36 -309.42 333.08 -33.75 -31.36c6.44,-7.53 15.46,-19.01 26.89,-34.59 11.44,-15.58 19.14,-27.72 22.68,-36.29 5.92,-13.8 6.89,-26.41 3.19,-37.57 -3.98,-11.15 -11.09,-21.61 -21.6,-31.37l-435.52 -404.59c-10.22,-9.49 -20.3,-15.55 -30.69,-18.31 -10.26,-2.91 -23.34,-1 -38.97,5.44 -11.69,4.86 -25.41,12.8 -41.02,23.67 -15.76,10.73 -26.74,19 -32.99,24.52l-33.75 -31.35 309.42 -333.08 33.75 31.35c-7.8,9.59 -16.22,21.62 -25.69,36.26 -9.18,14.64 -15.9,26.32 -20.17,34.77 -6.6,14.83 -7.7,27.88 -2.7,39.13 4.7,11.26 11.79,21.16 21.12,29.82l183.85 170.8 245.06 -263.79 -179.56 -166.81c-10.07,-9.35 -20.44,-15.4 -30.83,-18.17 -10.38,-2.47 -23.46,-0.57 -39.25,5.74 -10.42,4.39 -23.03,11.43 -37.81,21.41 -14.8,9.69 -26.08,17.97 -33.97,24.7l-33.75 -31.36 309.42 -333.07 33.75 31.35c-8.07,9.88 -16.51,21.35 -25.45,34.82 -8.8,13.33 -16.2,26.05 -22.05,37.99 -6.33,14.53 -7.28,27.43 -2.86,38.7 4.7,11.27 11.8,21.45 21.28,30.25l436.1 405.14c10.37,9.62 21.04,15.95 31.73,18.98 10.83,2.89 23.78,1.13 38.84,-5.28 9.28,-4.34 21.43,-12.08 36.04,-23.06 14.46,-11.11 25.98,-20.54 34.41,-28.43l33.75 31.36zm149.9 -1100.44c55.93,3.67 110.24,18.52 162.87,45.11 52.63,26.6 100.38,66.46 143.53,119.92 38.45,47.64 66.99,99.39 85.75,155.14 18.74,56.02 25.6,111.5 20.7,166.87 -5.58,57.74 -22.67,112.81 -50.68,165.28 -28.14,52.32 -71.69,102.27 -130.65,149.86 -47.64,38.45 -98.95,66.88 -153.81,85.46 -54.99,18.41 -110.65,25.69 -166.86,22 -55.53,-3.48 -109.39,-18.43 -161.86,-45.16 -52.47,-26.72 -99.33,-65.49 -140.83,-116.9 -43.02,-53.3 -73.12,-109.25 -89.9,-167.36 -16.78,-58.11 -21.71,-115.68 -14.8,-172.42 6.99,-56 25.66,-109.76 55.85,-161.14 30.07,-51.54 69.7,-97.02 118.92,-136.74 48.73,-39.34 100.96,-68.26 156.55,-86.89 55.86,-18.61 110.83,-26.11 165.25,-23.03zm259.69 563.66c-8.88,-39.31 -24.48,-78.91 -47.03,-119.39 -22.42,-40.33 -51.51,-82.8 -87.56,-127.45 -30.58,-37.89 -63.07,-72.69 -97.36,-104.22 -34.28,-31.53 -69.31,-55.97 -104.8,-73.54 -35.93,-17.49 -71.52,-25.88 -106.96,-25.06 -35.56,0.65 -69.45,13.99 -102,40.27 -55.66,44.92 -76.64,105.47 -62.93,181.66 13.87,76.05 59.56,162.25 137.35,258.63 33.12,41.03 67.36,77.02 103.09,108.42 35.6,31.25 71.02,54.86 106.49,71.14 35.92,16.19 70.63,23.48 104.17,21.6 33.54,-1.88 65.73,-15.4 96.86,-40.53 30.34,-24.49 50.23,-53.26 59.64,-86.31 9.27,-32.92 9.71,-68.07 1.02,-105.21zm761.75 -1272.49c-8.94,6.71 -21.36,16.67 -37.27,29.85 -16.01,13.02 -28.08,29.1 -36.04,48.16 -7.05,16.63 -6.64,37.53 1.27,63.14 7.97,25.34 24.74,59.56 50.41,102.83l306.75 517.19 -91.93 54.52 -778.53 -293.53 201.19 339.24c24.94,42.05 46.69,72.38 65.23,90.98 18.72,18.49 37.35,29.3 55.84,31.95 13.64,2.01 32.16,-0.05 55.65,-5.99 23.38,-6.12 41.64,-11.77 54.69,-16.7l23.5 39.63 -311.77 184.9 -23.5 -39.62c12.59,-8.88 26.27,-20.28 41.1,-34.48 14.76,-13.93 25.58,-28.56 32.21,-43.53 7.33,-17.74 7.6,-37.87 0.79,-60.85 -6.88,-22.69 -24.24,-57.51 -52.18,-104.6l-203.25 -342.71c-10.1,-17.03 -22.29,-31.64 -36.48,-43.68 -14.18,-12.02 -30.07,-20.21 -47.59,-24.39 -18.72,-4.64 -37.46,-5.73 -56.85,-3.16 -19.32,2.3 -39.79,7.39 -61.41,15.28l-23.5 -39.63 272.5 -161.61 681.97 257.06 -162.75 -274.41c-25.87,-43.62 -48.1,-74.37 -66.41,-92.17 -18.41,-17.97 -37.01,-28.32 -55.67,-30.88 -14.65,-2.12 -33.16,-0.06 -56.03,5.74 -22.6,5.88 -40.5,11.33 -53.73,16.36l-22.88 -38.58 311.77 -184.91 22.88 38.58zm1227 -99.43c29.97,6.48 57.32,18.83 81.88,37.14 24.56,18.31 43.6,43.91 57.11,76.8 16.2,39.44 21.65,76.09 16.22,110.2 -5.5,33.94 -20.59,65.26 -45.17,93.7 -25.79,30.26 -58.9,57.61 -98.86,82.12 -40.14,24.57 -89.15,48.86 -147.08,72.66l-403.51 165.78 -17.51 -42.61c10.94,-5.81 24.46,-13.32 40.99,-22.52 16.27,-9.31 27.16,-16.84 33.11,-22.56 11.16,-11.14 17.58,-22.08 18.75,-33.05 1.36,-11.04 -0.97,-23.63 -6.8,-37.83l-225.06 -547.79c-5.45,-13.27 -11.96,-23.27 -19.49,-30.43 -7.72,-7.1 -20.59,-10.77 -38.6,-11.01 -13.39,-0.17 -28.28,1.35 -44.46,4.5 -16.44,3.05 -30.52,5.99 -42.69,8.81l-17.51 -42.61 421.82 -173.31c106.16,-43.61 188.78,-60.52 247.66,-50.63 59.16,9.99 100.37,43.3 123.78,100.3 10.75,26.17 15.04,51.49 12.53,75.68 -2.25,24.3 -10.33,47.71 -24.15,70.43 -12.23,20.75 -28.69,41.29 -49.56,61.21 -20.6,20.04 -43.94,39.25 -69.66,57.46l4.38 10.65c29.75,-8.94 61.89,-14.72 96.53,-17.6 34.57,-3.06 66.43,-1.52 95.35,4.52zm-271.9 -162c-17.73,-43.17 -43.7,-71.82 -77.9,-85.95 -34.21,-14.12 -75.57,-11.11 -124.34,8.92 -6.92,2.84 -15.81,6.71 -26.79,11.88 -10.98,5.17 -20.28,9.65 -28.17,13.32l118.41 288.19 28.59 -11.75c59.25,-24.34 97.11,-56.06 114.05,-95.13 16.86,-39.25 15.51,-82.39 -3.84,-129.49zm191.78 358.32c-22.19,-54.02 -55.31,-88.9 -99.36,-104.66 -44.04,-15.77 -96.12,-11.19 -156.49,13.61 -6.91,2.84 -15.99,6.79 -27.35,12.11 -11.17,5.24 -19.54,9.34 -24.81,11.94l117.02 284.83c8.9,12.08 23.67,19.33 44.71,21.61 21.03,2.28 43.69,-1.57 68.18,-11.63 43.55,-17.89 72.88,-46.98 88.11,-87.53 15.12,-40.29 11.8,-87.2 -10.01,-140.28zm915.74 -665.58l-44.72 11.04c-18.83,-28.24 -45.65,-55.13 -80.76,-80.18 -34.96,-25.29 -66.63,-37.25 -94.77,-36.55 -12.2,0.31 -28.72,2.51 -49.27,6.95 -20.54,4.45 -37.66,8.46 -51,11.75l-118.3 29.19 77.84 315.45 83.96 -20.71c21.19,-5.23 39.79,-12.52 55.83,-21.69 16.01,-9.36 29.33,-22.84 39.97,-40.45 6.65,-11.01 11.8,-28.93 15.36,-53.32 3.31,-24.55 4.4,-45.42 3.09,-62.57l44.73 -11.04 83.93 340.16 -44.73 11.03c-6.32,-15.5 -17.2,-34.26 -32.41,-56.31 -15.42,-22 -28.61,-36.64 -39.27,-43.59 -15.99,-10.84 -33.42,-16.52 -51.94,-17.36 -18.57,-1.04 -39.01,1.3 -61.77,6.92l-83.96 20.72 58.09 235.4c6.1,24.71 12.66,43.7 19.92,57.1 7.11,13.64 16.7,22.94 28.58,28.11 11.41,4.89 25.76,6.55 42.97,4.59 17.26,-1.76 40.3,-6.2 69.14,-13.32 13.34,-3.29 29.38,-7.46 48.11,-12.49 18.74,-5.05 34.92,-10.29 48.56,-15.73 15.65,-5.74 30.03,-12.4 43.19,-19.81 13.01,-7.16 22,-15.42 27.08,-24.37 13.79,-23.38 27.47,-57.35 40.89,-101.66 13.62,-44.35 21.61,-76.92 24.12,-97.94l42.37 -10.45 47.24 258.06 -766.05 189.02 -11.04 -44.72c10.59,-3.45 24.73,-8.6 42.83,-15.35 17.86,-6.91 30.12,-12.85 37.2,-17.92 13.02,-9.66 20.94,-19.73 23.72,-30.41 2.58,-10.63 2.17,-23.22 -1.41,-37.74l-142.02 -575.57c-3.44,-13.93 -8.4,-24.77 -14.75,-32.78 -6.54,-7.95 -18.73,-13.48 -36.61,-16.77 -11.16,-2.24 -26.3,-2.87 -45.32,-2.34 -18.97,0.72 -33.33,1.57 -42.84,2.67l-11.04 -44.73 723.87 -178.61 51.4 208.33zm1198.01 459.39l-318.84 45.56c-67.24,-76.32 -122.45,-137.01 -166.17,-181.58 -43.55,-44.8 -97.19,-95.91 -160.77,-153.78l-33 4.72 36.04 252.23c2,14 6.29,25.43 13.09,34.46 6.61,9.06 17.98,15.81 33.72,20.29 7.86,2.14 20.12,3.65 36.38,4.6 16.29,1.14 30.2,1.4 41.77,0.96l6.52 45.6 -444.05 63.46 -6.52 -45.61c11.23,-2.83 26,-6.57 44.29,-11.43 18.29,-4.86 31.12,-9.34 38.66,-13.7 13.92,-8.31 22.8,-17.54 26.63,-27.89 3.62,-10.32 4.48,-22.89 2.36,-37.69l-83.87 -586.87c-2.03,-14.2 -5.89,-25.48 -11.43,-34.28 -5.75,-8.78 -17.33,-15.49 -34.73,-20.15 -13.34,-3.4 -28.74,-5.48 -46.26,-6.65 -17.69,-0.94 -31.47,-1.63 -41.49,-1.83l-6.52 -45.6 467.05 -66.75c104.41,-14.92 185.97,-9.84 244.83,15.02 58.87,24.85 92.93,70.4 102.39,136.61 8.32,58.21 -1.77,107.61 -30.11,147.78 -28.34,40.18 -75.4,75.08 -140.95,104.85 31.52,30.61 68.21,65.98 110.08,106.12 41.87,40.15 85.3,81.3 130.25,123.04 14.38,13.46 33.43,29.72 57.58,48.72 23.94,19.03 44.3,30 61.21,32.69 9.4,1.51 21.14,2.28 35.2,2.11 14.08,0.02 24.26,-0.21 30.12,-0.63l6.52 45.6zm-486.83 -561.52c-7.95,-55.61 -29.35,-93.98 -64.21,-115.13 -34.89,-21.34 -81.33,-27.77 -138.93,-19.54l-46.61 6.66 49.91 349.24 44.8 -6.4c57.8,-8.26 100.27,-29.63 127.75,-64.38 27.49,-34.76 36.66,-84.84 27.29,-150.45zm1417.55 -200.77c-11.53,1.11 -28.12,3.58 -49.78,7.61 -21.86,3.83 -40.11,10.94 -54.76,20.9 -15.24,9.76 -26.12,27.44 -32.43,53.04 -6.51,25.4 -9.9,63.96 -10.39,115.08l-2.96 312.16c-0.87,91.93 -32.69,165.38 -95.65,220.76 -62.96,55.37 -145.86,82.67 -248.5,81.7 -119.81,-1.14 -212.29,-29.09 -277.24,-83.66 -65.15,-54.57 -97.17,-130.24 -96.26,-226.82l4.07 -429.14c0.13,-13.74 -2.38,-25.68 -7.54,-35.63 -5.36,-9.75 -15.38,-18.73 -30.25,-26.76 -10.26,-5.36 -22.75,-9.51 -37.66,-12.88 -14.92,-3.18 -27.03,-5.52 -36.51,-6.82l0.44 -46.07 438.83 4.16 -0.44 46.07c-12.74,0.69 -25.47,1.99 -38.63,4.08 -13.16,2.1 -26.32,5.21 -39.9,9.33 -15,4.71 -25.17,12.49 -30.53,23.35 -5.15,11.06 -7.9,23.36 -8.03,37.31l-4.02 423.48c-0.79,83.24 17.02,144.03 53.44,182.16 36.62,38.13 89.77,57.63 159.88,58.3 68.9,0.66 123.05,-19.64 162.64,-61.1 39.59,-41.45 59.78,-102.89 60.55,-184.11l2.7 -284.48c0.48,-50.51 -2.6,-88.32 -9.23,-113.44 -6.63,-25.13 -17.17,-43.21 -31.2,-54.45 -10.23,-8.58 -27.93,-16.63 -53.32,-24.15 -25.39,-7.31 -43.13,-11.73 -53.42,-13.44l0.45 -47.28 366.11 3.47 -0.45 47.28zm1066.51 159.53c-11.17,-0.59 -27.08,-0.93 -47.74,-1.01 -20.63,-0.28 -40.21,4.32 -58.54,13.82 -16.08,8.23 -29.17,24.53 -39.53,49.25 -10.14,24.55 -19.23,61.56 -27.3,111.22l-96.49 593.52 -105.5 -17.15 -408.92 -724.61 -63.28 389.29c-7.85,48.27 -10.62,85.48 -8.32,111.64 2.49,26.2 9.85,46.44 22.33,60.33 9.18,10.3 24.7,20.59 46.53,31.11 21.86,10.31 39.5,17.68 52.67,22.28l-7.39 45.47 -357.79 -58.16 7.39 -45.48c15.35,1.27 33.16,1.3 53.65,-0.08 20.25,-1.21 37.94,-5.5 52.63,-12.74 17.01,-8.9 30.13,-24.17 39.64,-46.17 9.28,-21.82 18.3,-59.67 27.09,-113.71l63.93 -393.28c3.18,-19.55 3.2,-38.58 0.04,-56.9 -3.16,-18.33 -10.1,-34.81 -20.86,-49.24 -11.39,-15.57 -25.06,-28.43 -41.58,-38.9 -16.29,-10.63 -35.25,-19.86 -56.91,-27.68l7.39 -45.47 312.72 50.84 358.22 634.69 51.19 -314.91c8.14,-50.06 10.81,-87.91 8.19,-113.31 -2.6,-25.6 -10.22,-45.47 -22.89,-59.4 -9.88,-11.02 -25.4,-21.32 -46.67,-31.53 -21.1,-9.98 -38.33,-17.29 -51.71,-21.92l7.19 -44.28 357.79 58.16 -7.19 44.28zm324.42 923.24l-448.53 -120.08 11.92 -44.5c10.56,1.99 25.89,4.84 46.22,8.61 20.27,3.97 34.57,5.27 43.01,4.2 15.57,-1.9 27.17,-6.95 34.95,-14.91 7.53,-7.81 13.3,-19.24 17.17,-33.67l154.05 -575.4c3.5,-13.08 4.05,-25.27 1.78,-36.33 -2.22,-11.26 -9.83,-21.88 -22.65,-31.8 -7.93,-6.31 -20.36,-13.81 -37.27,-22.52 -16.67,-8.86 -31.35,-15.71 -43.82,-20.73l11.91 -44.5 448.52 120.08 -11.91 44.5c-11.63,-1.86 -26.3,-4.11 -44.05,-6.56 -17.55,-2.4 -32.78,-3.34 -45.49,-2.77 -16.19,1.1 -28.18,6.05 -35.89,15.29 -7.7,9.23 -13.43,20.45 -16.98,33.73l-153.94 575c-3.66,13.66 -4.26,26.06 -1.79,37.17 2.65,11.17 10.27,21.79 23.1,31.7 6.86,5.6 19.25,12.48 36.76,20.51 17.65,8.28 32.56,14.36 44.83,18.49l-11.91 44.5zm1145.47 -423.84c-13.8,-3.48 -27.02,-5.67 -39.2,-6.59 -12.43,-0.81 -24.73,-0.27 -36.78,1.88 -19.23,2.89 -37.69,8.87 -55.26,18.23 -17.69,9.09 -35.64,20.02 -53.71,32.42 -37.29,26.09 -76.85,54.78 -118.87,86 -42.02,31.21 -87.81,65.54 -137.51,103.37 -32.07,23.74 -53.68,43.22 -64.57,58.34 -11.08,15.04 -24.34,43.29 -39.9,84.5l-42.11 111.52c-5,13.23 -6.89,25.69 -5.76,37.57 1.32,11.94 7.7,23.64 19.33,35.16 5.25,5 17.19,13.4 35.84,25.2 18.59,11.98 32.4,20 41.76,24.41l-16.28 43.09 -436.66 -164.87 16.28 -43.1c10.5,3.1 26,7.23 46.07,12.43 20.14,5.01 34.56,7.44 43.45,7.33 15.81,-0.72 28,-4.97 36.82,-12.87 8.63,-7.97 15.58,-18.95 20.87,-32.94l52.32 -138.55c4.57,-12.09 8.44,-22.94 11.56,-32.35 3.12,-9.41 4.72,-17.66 5,-24.68 -0,-8 -1.12,-18.78 -3.29,-31.91 -2.09,-13.32 -4.87,-30.56 -8.39,-51.55 -9.7,-60.68 -19.27,-118.28 -29,-173.15 -9.81,-54.67 -19.29,-106.2 -28.53,-154.4 -4.95,-25.2 -11.48,-46.23 -19.44,-63.49 -8.21,-17.13 -17.28,-32.01 -27.78,-44.83 -7.88,-9.45 -18.4,-18.17 -31.44,-26.55 -13.11,-8.19 -25.25,-14.93 -36.49,-20.05l16.28 -43.09 450.26 170.01 -16.27 43.09c-41.82,-14.5 -70.69,-22.15 -86.77,-23.04 -16.34,-0.77 -25.95,2.94 -29.01,11.07 -1.5,3.97 -1.74,13.17 -1.09,27.45 0.73,14.1 3.23,36.65 7.21,67.3 3.6,28.79 9.52,68.6 17.79,119.9 8.28,51.28 18.77,111.62 31.64,181.05 112.1,-84.67 189.63,-144.16 232.61,-178.47 42.91,-34.12 66.15,-56.23 69.94,-66.25 4.78,-12.67 0.6,-25.04 -12.14,-37.63 -13,-12.47 -36.38,-26.05 -70.26,-41.01l16.28 -43.09 291.48 110.06 -16.28 43.1zm1192.23 699.9c-10.43,-5.05 -25.88,-11.57 -46.48,-19.39 -20.66,-8.1 -39.94,-11.53 -57.63,-10.64 -18.1,0.41 -36.58,9.85 -55.29,28.43 -18.77,18.31 -41.73,49.47 -68.74,92.88l-164.92 265.05c-48.57,78.06 -113.95,124.24 -196.53,138.77 -82.57,14.54 -167.58,-5.27 -254.73,-59.5 -101.73,-63.3 -166.17,-135.28 -193.26,-215.68 -27.26,-80.5 -15.23,-161.78 35.79,-243.78l226.73 -364.39c7.26,-11.67 11.33,-23.18 12.1,-34.36 0.49,-11.11 -3.39,-24 -11.92,-38.59 -5.97,-9.91 -14.48,-19.96 -25.46,-30.59 -11.1,-10.48 -20.21,-18.77 -27.63,-24.82l24.34 -39.12 372.62 231.85 -24.34 39.11c-11.24,-6.04 -22.79,-11.56 -35.11,-16.61 -12.33,-5.06 -25.18,-9.24 -38.92,-12.8 -15.26,-3.78 -28,-2.42 -38.22,4.06 -10.16,6.77 -18.91,15.84 -26.27,27.69l-223.74 359.58c-43.98,70.68 -60.39,131.86 -49.13,183.37 11.44,51.61 46.69,95.92 106.22,132.96 58.5,36.4 115.3,47.23 170.68,32.43 55.37,-14.8 104.58,-56.78 147.49,-125.74l150.29 -241.55c26.69,-42.88 43.73,-76.79 51.13,-101.68 7.41,-24.91 7.81,-45.83 1.68,-62.74 -4.27,-12.65 -15.2,-28.73 -32.97,-48.36 -17.88,-19.45 -30.73,-32.45 -38.63,-39.27l24.98 -40.14 310.87 193.42 -24.98 40.14zm835.58 676.95c-9.28,-6.24 -22.76,-14.7 -40.44,-25.39 -17.56,-10.85 -36.71,-16.96 -57.32,-18.22 -18.03,-1.2 -37.63,6.05 -59.22,21.94 -21.31,15.86 -48.12,42.93 -80.56,81.39l-387.75 459.59 -81.7 -68.92 21.52 -831.75 -254.32 301.46c-31.53,37.37 -53.03,67.87 -64.51,91.5 -11.32,23.76 -15.41,44.9 -11.85,63.23 2.58,13.55 10.61,30.36 23.93,50.59 13.46,20.08 24.8,35.47 33.74,46.18l-29.71 35.21 -277.05 -233.74 29.71 -35.21c12.52,8.98 27.78,18.15 46.06,27.49 18.01,9.37 35.38,14.78 51.7,16.13 19.16,1.09 38.27,-5.25 57.73,-19.24 19.17,-13.96 46.36,-41.79 81.66,-83.64l256.94 -304.54c12.77,-15.14 22.57,-31.45 29.27,-48.8 6.7,-17.35 9.21,-35.05 7.41,-52.96 -1.77,-19.21 -6.89,-37.27 -15.68,-54.74 -8.51,-17.49 -20.04,-35.15 -34.6,-52.99l29.71 -35.21 242.15 204.3 -18.81 728.56 205.73 -243.86c32.71,-38.76 54.45,-69.85 65.25,-92.99 10.93,-23.3 14.6,-44.26 10.88,-62.72 -2.81,-14.53 -10.84,-31.35 -23.83,-51.03 -12.97,-19.41 -24,-34.53 -33.1,-45.38l28.92 -34.29 277.06 233.75 -28.92 34.28z"/>
    <path class="fil11" d="M36796.89 29854.07l-324.71 -331.89 32.93 -32.22c8.08,7.09 19.82,17.36 35.38,30.97 15.43,13.74 27.05,22.15 34.87,25.52 14.36,6.3 26.92,7.87 37.67,4.99 10.46,-2.89 21.25,-9.77 31.94,-20.23l425.77 -416.57c9.67,-9.46 16.36,-19.68 20.05,-30.35 3.83,-10.82 2.69,-23.83 -3.29,-38.91 -3.61,-9.47 -10.47,-22.26 -20.58,-38.37 -9.83,-16.11 -18.97,-29.49 -27.14,-40.16l32.93 -32.22 324.72 331.89 -32.93 32.22c-9.06,-7.53 -20.53,-16.94 -34.56,-28.1 -13.88,-11.01 -26.51,-19.58 -37.73,-25.56 -14.49,-7.3 -27.34,-9.16 -38.66,-5.13 -11.33,4.02 -21.98,10.76 -31.8,20.37l-425.48 416.28c-10.11,9.89 -16.94,20.25 -20.49,31.07 -3.41,10.96 -2.26,23.98 3.71,39.05 3.05,8.32 10.2,20.55 21.18,36.38 10.96,16.12 20.69,28.95 29.15,38.75l-32.93 32.22zm1222.33 220.45c-9.07,-9.31 -18.66,-17.66 -28.85,-24.5 -10.32,-6.98 -22.18,-12.99 -35.99,-18.2 -18.36,-6.99 -34.79,-10.61 -49.44,-10.74 -14.65,-0.13 -32.46,2.57 -53.58,7.93 -28.68,7.57 -70.45,19.21 -125.12,34.78 -54.56,15.73 -116.8,33.52 -186.46,53.38 -62.56,18.03 -130.79,38.06 -204.97,60.03 -74.06,22.12 -145.01,43.29 -212.82,63.49l-74.75 -92.61c70.7,-127.95 142.49,-258.08 215.38,-390.39 72.89,-132.31 123.1,-224.52 150.97,-276.86 9.7,-19.51 15.75,-35.82 18.28,-48.77 2.38,-12.82 2.05,-29.95 -1.16,-50.99 -2.68,-15.22 -5.96,-27.65 -10.23,-37.44 -4.12,-9.92 -10.57,-22.1 -19.35,-36.84l35.85 -28.93 285.53 353.76 -34.91 28.18c-30.74,-29.73 -53,-48.62 -66.92,-56.86 -13.8,-8.08 -24.28,-9.48 -31.04,-4.03 -3.47,2.79 -6.57,6.33 -9.59,10.33 -2.88,4.15 -6.67,10.07 -11.47,17.31 -19.05,31.73 -48.88,85.16 -89.4,160.43 -40.51,75.28 -103.1,189.15 -187.86,341.18 101.57,-30.83 187,-57.2 256.46,-79.24 69.46,-22.04 130.87,-41.5 184,-58.68 25.87,-8.16 49.47,-16.56 70.66,-25.36 21.04,-8.68 35.97,-16.57 44.61,-23.55 9.75,-7.87 12.37,-21.67 7.55,-41.15 -4.94,-19.63 -21.26,-49.82 -49.37,-90.76l36.79 -29.7 213.96 265.09 -36.79 29.7zm288.96 795.74l-23.5 -39.63c21.58,-26.19 39.56,-59.64 53.39,-100.5 14.1,-40.78 16.39,-74.55 7.59,-101.28 -3.82,-11.59 -10.71,-26.77 -20.9,-45.16 -10.21,-18.38 -19,-33.6 -26,-45.42l-62.16 -104.8 -279.45 165.74 44.12 74.38c11.13,18.77 23.49,34.47 36.91,47.18 13.59,12.61 30.35,21.47 50.28,26.56 12.46,3.18 31.1,2.93 55.49,-0.72 24.45,-3.93 44.75,-8.92 60.78,-15.14l23.5 39.62 -301.35 178.73 -23.5 -39.63c13.02,-10.54 27.82,-26.37 44.53,-47.32 16.6,-21.12 26.8,-37.98 30.37,-50.19 5.75,-18.44 6.15,-36.77 1.59,-54.74 -4.38,-18.07 -12.53,-36.96 -24.48,-57.13l-44.12 -74.38 -208.55 123.68c-21.89,12.98 -38.17,24.76 -48.9,35.58 -11.01,10.76 -17.13,22.61 -18.65,35.49 -1.38,12.33 1.18,26.55 8.03,42.46 6.68,16.01 17.59,36.79 32.74,62.33 7.01,11.82 15.64,25.96 25.88,42.44 10.24,16.48 19.94,30.46 29.11,41.94 10.02,13.32 20.55,25.16 31.46,35.61 10.61,10.38 21.12,16.6 31.15,18.87 26.37,6.44 62.84,9.71 109.14,9.74 46.4,0.2 79.88,-1.57 100.73,-5.23l22.26 37.53 -233.38 119.85 -402.49 -678.64 39.63 -23.5c6.37,9.14 15.38,21.19 27.09,36.56 11.77,15.11 21.01,25.13 27.91,30.43 13.02,9.67 24.95,14.34 35.97,13.91 10.92,-0.6 22.86,-4.63 35.72,-12.26l509.9 -302.41c12.34,-7.32 21.29,-15.2 27.12,-23.6 5.72,-8.57 7.49,-21.83 5.47,-39.9 -1.08,-11.33 -4.86,-26.01 -10.87,-44.06 -6.17,-17.94 -11.13,-31.45 -14.93,-40.24l39.63 -23.5 380.33 641.28 -184.56 109.46zm-96.14 1268.59l-136.77 -291.59c53.33,-86.61 95.24,-157.15 125.09,-211.99 30.12,-54.74 63.32,-120.98 100.08,-198.7l-14.16 -30.19 -230.68 108.2c-12.8,6 -22.49,13.45 -29.12,22.59 -6.74,8.97 -9.86,21.81 -9.55,38.18 0.25,8.13 2.39,20.3 6.23,36.12 3.67,15.91 7.49,29.3 11.28,40.24l-41.71 19.56 -190.48 -406.11 41.71 -19.56c5.99,9.91 13.89,22.95 23.87,39.02 10,16.07 18.04,27.03 24.4,32.96 12.02,10.88 23.44,16.68 34.46,17.32 10.92,0.45 23.2,-2.4 36.73,-8.75l536.72 -251.74c12.99,-6.09 22.65,-13.08 29.45,-20.95 6.71,-8.06 9.75,-21.09 9.12,-39.1 -0.65,-13.75 -3.16,-29.09 -7.16,-46.18 -4.26,-17.19 -7.64,-30.56 -10.38,-40.21l41.71 -19.56 200.35 427.14c44.79,95.49 63.77,174.97 57.2,238.53 -6.56,63.56 -40.16,109.44 -100.72,137.85 -53.23,24.97 -103.43,29.77 -150.13,14.4 -46.71,-15.36 -93.83,-50.17 -141.46,-104.15 -20.06,39.09 -43.16,84.52 -69.31,136.29 -26.16,51.77 -52.81,105.34 -79.6,160.53 -8.67,17.68 -18.65,40.66 -29.76,69.31 -11.2,28.46 -15.74,51.13 -13.37,68.09 1.3,9.43 3.99,20.88 8.27,34.28 4.1,13.48 7.29,23.14 9.41,28.62l-41.71 19.56zm394.71 -629.69c50.86,-23.85 81.29,-55.54 91.32,-95.07 10.21,-39.6 2.79,-85.89 -21.92,-138.57l-19.99 -42.63 -319.4 149.81 19.22 40.98c24.8,52.87 57.65,87.23 98.91,103.36 41.27,16.13 91.85,10.26 151.86,-17.88zm-343.56 939.53c-14.81,-49.35 -22.37,-97.08 -22.9,-143.12 -0.38,-46.29 3.13,-86.58 10.89,-121.19l-51.4 -27.18 -14.64 -48.77 288.2 -94.07 14.64 48.77c-24.17,19.28 -49.02,41.92 -74.49,68.12 -25.27,26.15 -46.7,53.88 -64.15,83.59 -18.45,30.64 -31.23,62.53 -38.32,95.88 -7.33,33.2 -5.28,68.87 6.22,107.19 15.39,51.29 39.81,86.99 73.02,106.98 33.35,19.74 69.02,24.02 107.14,12.58 31.16,-9.35 54,-28.86 68.32,-58.47 14.32,-29.61 21.91,-71.12 22.95,-124.59 0.68,-35.01 1.39,-67.08 2.15,-96.21 0.7,-29.32 2.11,-56.96 4.11,-83.3 5.48,-60.5 24.18,-109.98 56.59,-148.19 32.16,-38.34 73.11,-64.97 122.66,-79.83 31.35,-9.4 63.57,-11.69 96.72,-6.66 33.1,4.84 65.01,16.99 95.88,36.21 29.16,18.46 56.36,45.11 81.58,79.94 25.41,34.77 44.9,75.13 58.66,120.99 13.41,44.71 19.77,88.37 18.86,131.04 -0.71,42.61 -3.87,77.1 -9.77,103.13l44.46 24.42 14.63 48.77 -272.65 86.87 -14.64 -48.77c25.99,-20.24 52.23,-42.47 78.42,-66.99 26.19,-24.52 47.04,-48.5 62.26,-71.63 16.35,-24.95 27.52,-51.71 33.23,-79.79 5.77,-27.89 3.81,-58.32 -5.94,-90.83 -12.25,-40.83 -33.85,-70.64 -64.6,-89.47 -30.81,-19.02 -63.35,-23.39 -97.4,-13.18 -32.13,9.64 -55.08,28.76 -68.67,57.31 -13.72,28.8 -21.21,69.23 -22.41,121.48 -1.06,30.9 -2.01,62.2 -2.53,94.21 -0.77,31.88 -2.09,60.54 -4.01,85.79 -4.79,61.36 -21.53,111.73 -50.29,151.58 -28.63,39.6 -70.58,67.8 -125.93,84.41 -34.84,10.45 -70.95,12.43 -108.34,5.92 -37.38,-6.5 -71.04,-20.24 -101.02,-41.42 -32.86,-23.05 -61.76,-52.56 -86.44,-88.4 -24.93,-35.97 -45.19,-80.31 -61.04,-133.15zm224.15 812.59l-88.63 -455.78 45.22 -8.8c2.84,10.36 7,25.4 12.51,45.33 5.32,19.96 10.41,33.38 15.08,40.5 8.53,13.16 18.16,21.37 28.72,24.88 10.32,3.35 23.12,3.53 37.8,0.68l584.71 -113.7c13.28,-2.58 24.49,-7.44 33.44,-14.32 9.15,-6.93 15.36,-18.42 18.65,-34.3 2.2,-9.9 3.5,-24.35 3.92,-43.37 0.66,-18.86 0.38,-35.07 -0.57,-48.46l45.22 -8.8 88.63 455.79 -45.22 8.79c-3.43,-11.27 -7.83,-25.44 -13.41,-42.47 -5.53,-16.83 -11.37,-30.93 -17.45,-42.1 -8.09,-14.07 -17.79,-22.68 -29.46,-25.56 -11.67,-2.88 -24.27,-3.11 -37.77,-0.48l-584.3 113.62c-13.88,2.7 -25.29,7.6 -34.2,14.68 -8.88,7.28 -15.08,18.78 -18.38,34.65 -2.02,8.63 -2.78,22.77 -2.32,42.03 0.29,19.5 1.36,35.55 3.02,48.4l-45.22 8.79zm695.34 754.65l-4.22 -45.87c34.51,-15.35 70.74,-38.36 108.9,-69.05 38.18,-30.5 57.82,-57.46 58.95,-80.49 0.46,-12.62 0.25,-28.22 -0.25,-46.85 -0.48,-18.41 -1.33,-34.37 -2.57,-47.85l-2.53 -27.57 -655.73 60.26c-14.08,1.29 -26.32,5.05 -36.72,11.08 -10.4,6.03 -17.93,16.86 -22.79,32.32 -2.81,9.19 -5.13,23.61 -7.02,42.85 -2.07,19.47 -3.2,35.8 -3.59,49.23l-45.87 4.22 -42.71 -464.79 45.88 -4.22c2.24,11.16 5.33,27.1 9.43,47.43 4.1,20.32 8,33.96 11.69,41.13 7.85,14.7 17.24,24.18 28.17,28.25 11.12,4.05 23.84,5.52 38.53,4.17l661.56 -60.79 -2.53 -27.56c-1.24,-13.48 -3.31,-29.32 -6.2,-47.52 -2.9,-18.4 -5.53,-33.78 -8.29,-46.11 -5.31,-22.44 -29.53,-45.37 -72.63,-68.4 -43.12,-23.23 -82.94,-39.25 -119.67,-48.05l-4.22 -45.88 239.03 -21.96 74.44 810.06 -239.03 21.96zm37.38 804.98l0.44 -46.06c32.03,-11.21 64.75,-30.5 97.75,-58.28 33.2,-27.57 52.65,-55.27 58.98,-82.7 2.74,-11.89 4.72,-28.44 5.52,-49.45 0.8,-21 1.17,-38.59 1.3,-52.33l1.16 -121.83 -324.89 -3.08 -0.81 86.47c-0.21,21.83 2.23,41.65 7.11,59.48 5.08,17.83 14.83,34.09 29.24,48.77 9.01,9.18 25.08,18.62 47.82,28.14 22.95,9.31 42.89,15.56 59.84,18.55l-0.44 46.07 -350.35 -3.33 0.43 -46.06c16.6,-2.27 37.46,-8.13 62.61,-17.39 25.14,-9.46 42.6,-18.6 51.99,-27.19 14.47,-12.79 24.31,-28.26 29.73,-45.99 5.62,-17.72 8.44,-38.1 8.66,-61.54l0.82 -86.47 -242.46 -2.3c-25.45,-0.24 -45.48,1.39 -60.26,5.08 -14.98,3.5 -26.36,10.46 -34.34,20.69 -7.57,9.83 -12.75,23.32 -15.14,40.48 -2.58,17.15 -4.02,40.58 -4.3,70.28 -0.13,13.74 -0.09,30.31 0.13,49.7 0.22,19.41 1.27,36.39 3.16,50.95 1.67,16.59 4.54,32.17 8.45,46.76 3.7,14.38 9.47,25.14 16.87,32.28 19.21,19.17 48.72,40.87 88.29,64.89 39.58,24.22 69.13,40.06 88.86,47.73l-0.41 43.63 -261.7 -18.44 7.49 -788.99 46.07 0.44c0.7,11.12 2.17,26.09 4.22,45.3 2.24,19.02 4.95,32.38 8.1,40.49 6.12,15.02 13.91,25.19 23.56,30.54 9.65,5.14 21.95,7.88 36.9,8.03l592.8 5.63c14.35,0.13 26.08,-1.97 35.42,-6.13 9.33,-4.36 17.72,-14.79 25.35,-31.29 4.94,-10.26 9.32,-24.76 13.54,-43.32 4.02,-18.55 6.78,-32.67 8.08,-42.16l46.07 0.44 -7.07 745.55 -214.57 -2.04zm-120.73 927.01l5.09 -45.78c36.89,-8.1 77.01,-23.36 120.56,-45.76 43.54,-22.2 68.19,-44.67 73.93,-67.01 2.99,-12.27 5.91,-27.61 9.17,-45.95 3.23,-18.14 5.6,-33.94 7.1,-47.39l3.06 -27.52 -654.46 -72.72c-14.06,-1.57 -26.8,-0.34 -38.2,3.48 -11.4,3.81 -20.95,12.92 -28.82,27.08 -4.6,8.44 -9.78,22.09 -15.5,40.56 -5.93,18.66 -10.33,34.43 -13.41,47.51l-45.78 -5.09 51.55 -463.89 45.79 5.09c-0.05,11.38 -0.22,27.62 -0.29,48.36 -0.06,20.72 1,34.87 3.19,42.64 4.73,15.98 12.02,27.15 21.92,33.34 10.08,6.2 22.24,10.19 36.9,11.82l660.29 73.37 3.06 -27.51c1.49,-13.45 2.65,-29.39 3.47,-47.8 0.85,-18.61 1.37,-34.2 1.14,-46.84 -0.69,-23.04 -19.81,-50.38 -57.41,-81.59 -37.57,-31.42 -73.36,-55.11 -107.56,-71.11l5.08 -45.79 238.57 26.51 -89.84 808.5 -238.57 -26.51zm-713.12 384.61l97.46 -453.97 45.04 9.67c-1.46,10.64 -3.54,26.11 -6.29,46.6 -2.94,20.45 -3.54,34.79 -2.04,43.17 2.68,15.46 8.31,26.79 16.64,34.16 8.18,7.13 19.88,12.33 34.5,15.47l582.38 125.03c13.24,2.85 25.44,2.78 36.38,-0.04 11.14,-2.78 21.35,-10.92 30.62,-24.22 5.9,-8.24 12.78,-21.02 20.63,-38.35 8.01,-17.08 14.13,-32.09 18.51,-44.8l45.04 9.67 -97.46 453.97 -45.04 -9.67c1.28,-11.71 2.79,-26.47 4.34,-44.32 1.52,-17.65 1.7,-32.91 0.49,-45.57 -1.91,-16.12 -7.46,-27.85 -17.06,-35.08 -9.61,-7.23 -21.1,-12.38 -34.54,-15.27l-581.98 -124.95c-13.83,-2.97 -26.24,-2.95 -37.22,0.07 -11.02,3.21 -21.24,11.35 -30.51,24.65 -5.25,7.14 -11.49,19.85 -18.64,37.75 -7.39,18.05 -12.71,33.23 -16.22,45.7l-45.04 -9.67z"/>
   </g>
   <path class="fil11" d="M31398.74 43251.29l54.82 -169.34c126.8,44.58 218.43,83.03 276.1,115.76 -15.13,-143.98 -23.31,-243.39 -24.13,-297.38l174.25 0c-2.46,78.95 -11.45,177.52 -27.82,296.15 82.22,-41.31 176.3,-79.76 282.24,-114.53l54.81 169.34c-101.03,33.55 -200.02,56.04 -297.37,67.09 48.67,42.13 116.99,117.8 205.34,226.2l-143.17 101.85c-46.22,-62.99 -101.03,-148.89 -164.02,-257.29 -59.31,112.49 -111.26,198.39 -155.84,257.29l-140.72 -101.85c92.04,-114.13 158.31,-189.39 197.99,-226.2 -102.67,-20.04 -200.03,-42.54 -292.47,-67.09z"/>
   <g id="_2204415983040">
    <path class="fil11" d="M29988.98 43468.04c-123.02,-20.56 -215.11,-76.38 -276.03,-167.65 -60.88,-91.45 -79.73,-193.79 -56.44,-307.62 19.86,-97.04 65.91,-176.66 137.94,-238.9 95.45,-82.37 211.97,-109.58 349.72,-81.39 138.13,28.27 235.25,96.8 291.58,205.61 44.49,86.08 56.51,179.59 35.78,280.88 -23.3,113.82 -81.46,200.61 -174.53,260.55 -93.11,60.14 -195.68,76.13 -308.02,48.51zm0.59 -37.26c70.42,14.41 131.16,-10.34 182.65,-74.37 41.91,-52.53 74.02,-133.79 96.52,-243.76 26.73,-130.61 23.36,-232 -9.95,-303.94 -23.3,-50.2 -63.78,-81.2 -121.66,-93.04 -38.97,-7.97 -73.51,-5.2 -103.38,8.18 -38.11,17.32 -72.06,50.58 -101.4,99.65 -29.34,49.07 -52.73,116.24 -70.11,201.12 -20.73,101.29 -26.79,179.04 -18.15,233.06 8.6,54.23 25.45,94.66 50.56,121.3 25.1,26.64 56.72,43.97 94.92,51.79zm-827.8 -147.66l6.19 -24.03c47.73,-7.63 85.05,-23.84 111.97,-48.62 27.12,-24.73 44.66,-52.55 52.66,-83.63 1.63,-6.29 1.47,-11.21 -0.22,-14.9 -1.83,-3.93 -3.87,-6.28 -6.54,-6.97 -2.29,-0.59 -5.87,-0.09 -11.09,1.21 -12.3,3.55 -26.48,3.34 -42.5,-0.78 -21.92,-5.65 -38.59,-19.1 -50.38,-40.43 -11.84,-21.15 -14.64,-43.43 -8.74,-66.31 6.34,-24.6 21.23,-43.74 44.55,-57.66 23.45,-13.68 48.36,-17.23 74.87,-10.4 32.04,8.26 56.11,27.68 72.41,58.32 16.3,30.64 19,67.53 7.9,110.62 -13.71,53.2 -41.91,96.37 -84.8,129.44 -42.65,32.94 -98.18,51.16 -166.27,54.15zm-911.95 -327.39l686.7 -535.63 -139.73 -51.35c-65.99,-24.25 -113.76,-36.98 -143.25,-38.37 -47.64,-2.82 -93.43,7.62 -137.39,31.33 -43.89,23.52 -82.51,62.41 -116.13,116.77l-21.07 -7.74 127.56 -255.22 672.24 247.04 -687.85 536.47 109.06 40.07c42.14,15.49 70.53,24.45 84.79,26.76 27.01,4.68 54.25,4.2 81.53,-1.51 27.35,-5.9 52.62,-17.59 75.71,-35.32 23.09,-17.74 45.28,-42.74 66.58,-74.98l20.15 7.41 -98.89 207.44 -580 -213.14zm-504.7 -627.93c-59.62,-48.13 -97.75,-90.01 -114.13,-125.29 -23.71,-50.43 -23.38,-100.81 1,-151.15 25.67,-52.99 68.22,-86.64 127.76,-100.69 72.62,-16.68 158.78,-0.77 258.38,47.48l357.99 173.4 -8.76 18.08c-32.61,-15.8 -56.22,-23.51 -70.74,-22.89 -14.62,0.36 -26.63,4.38 -35.96,11.9 -9.51,7.43 -23.48,30.41 -42.11,68.87l-221.99 458.3c-18.63,38.45 -28,63.67 -28.02,75.92 -0.2,12.16 4.27,24.16 13.04,35.86 9.04,11.6 29.56,25.26 61.81,40.88l-8.75 18.07 -337.78 -163.61c-80.81,-39.14 -134.36,-74.05 -161.08,-104.71 -26.72,-30.67 -42.74,-64.89 -48.42,-102.87 -5.49,-37.89 -0.48,-73.09 15.06,-105.17 16.48,-34.03 43.48,-58.15 81.16,-72.71 37.6,-14.39 91.42,-14.36 161.53,0.34zm182.49 105.68c-49.62,-24.03 -88.97,-36.31 -117.95,-36.56 -28.89,-0.43 -54.52,6.4 -76.9,20.52 -22.28,13.93 -41.11,36.54 -56.21,67.73 -15.11,31.19 -21.26,59.72 -18.47,85.57 2.7,26.04 13.13,49.68 31.28,71.38 17.97,21.62 52.61,44.52 103.82,68.89l134.43 -277.53zm19.57 -40.4l109.36 -225.79 12.62 -26.05c9.02,-18.6 11.27,-35.02 6.43,-48.96 -4.75,-14.12 -16.26,-25.6 -34.69,-34.53 -27.29,-13.22 -55.29,-19.12 -84.24,-18.05 -28.97,1.07 -55.09,10.29 -78.65,27.76 -23.47,17.3 -42.29,40.34 -56.12,68.87 -15.88,32.79 -23.21,65.56 -22.19,98.22 1.21,32.75 12.49,60.97 34.27,84.65 21.79,23.68 59.53,48.3 113.22,73.88zm-975.19 -111.86l166.42 -272.16 -13.28 -8.12c-42.5,-25.99 -81.36,-31.52 -116.74,-16.68 -35.22,14.93 -71.41,46.58 -108.27,95.14l-19.15 -11.71 213.88 -349.78 19.15 11.71c-19.46,40.5 -30.17,76.88 -32.36,108.78 -2.12,32.17 2.52,57.4 14.19,76.07 11.66,18.67 33.46,37.77 65.38,57.29l114.85 -187.82c22.5,-36.79 34.65,-60.06 36.49,-70.24 2.01,-10.08 0.24,-20.4 -5.15,-30.85 -5.38,-10.45 -17.51,-21.56 -36.5,-33.16l-39.98 -24.45c-62.33,-38.11 -121.22,-54.27 -176.43,-48.56 -55.2,5.71 -109.06,33.02 -161.52,82.2l-18.31 -11.2 159.81 -193.8 576.74 352.67 -10.48 17.13 -22.01 -13.46c-19.32,-11.81 -37.1,-17.84 -53.07,-18.14 -11.45,-0.54 -22.83,3.35 -34.25,11.84 -8.35,5.74 -22.94,25.44 -43.59,59.21l-269.35 440.49c-18.59,30.41 -29.15,49.57 -31.79,57.65 -3.9,13.55 -3.3,26.15 1.81,37.81 6.78,16.84 20.87,31.92 42.54,45.18l22 13.45 -10.48 17.13 -558.43 -341.46 120.81 -197.56 19.14 11.71c-20.18,54.14 -27.89,96.96 -23.6,128.44 4.29,31.48 19.04,61.72 44.39,90.85 14.71,17.08 47.14,41.06 97.53,71.88l69.55 42.53zm-752.14 -808.88l-11.54 -440.61c-1.73,-62.19 -8.56,-108.76 -20.51,-139.7 -8.74,-22.12 -22.37,-40.02 -40.45,-53.65l12.08 -16.04 324.8 244.65 -12.08 16.05c-22.03,-13.64 -37.73,-20.29 -47.14,-20.23 -9.53,0.22 -16.78,3.63 -21.99,10.55 -9.84,13.06 -14.32,48.14 -13.14,105.48l7.6 287.75 37.65 -1.22 128.9 -171.13c24.76,-32.88 38.27,-54.75 40.7,-65.49 2.27,-10.86 0.4,-23.12 -5.87,-36.72 -6.16,-13.76 -20.86,-29.26 -43.98,-46.68l12.08 -16.04 315.21 237.43 -12.08 16.04 -20.61 -15.52c-18.09,-13.63 -35.2,-21.34 -51.07,-23.19 -11.34,-1.64 -23.04,1.13 -35.22,8.48 -8.87,4.9 -25.29,23.1 -49.1,54.72l-310.65 412.42c-24.28,32.24 -37.72,53.68 -40.46,64.19 -2.58,10.63 -1.15,22.8 4.57,36.48 5.6,13.84 17.2,27.25 34.81,40.52l20.61 15.52 -12.08 16.04 -310.5 -233.87 12.09 -16.04c21.07,15.87 39.65,24.93 55.27,27.09 11.34,1.64 23.08,-0.86 35.34,-7.65 9.43,-4.98 26.25,-23.38 50.29,-55.31l147.03 -195.2 -373.62 11.95c-52.26,2.3 -84.42,11.6 -96.39,27.49 -9,11.96 -9.38,26.21 -1.39,43.08 4.16,8.55 19.18,23.31 45.2,44.4l-12.08 16.04 -243.33 -183.28 12.08 -16.04c23.05,14.89 43.16,23.88 60.44,26.79 17.17,3.07 62.14,2.92 134.69,-0.11l293.82 -9.44zm-427.05 -958.9l13.57 -14.81 300.59 275.31 -13.57 14.81 -19.02 -17.42c-16.7,-15.3 -33,-24.62 -48.61,-27.98 -11.13,-2.72 -23.04,-1.08 -35.88,5.06 -9.3,4.03 -27.39,20.57 -54.13,49.76l-348.73 380.75c-27.27,29.77 -42.69,49.82 -46.42,60.02 -3.59,10.33 -3.33,22.59 1.05,36.75 4.25,14.3 14.5,28.77 30.77,43.67l19.02 17.42 -13.57 14.81 -300.59 -275.31 13.56 -14.81 19.02 17.43c16.55,15.15 32.71,24.34 48.33,27.7 10.98,2.58 23.04,1.08 36.16,-4.79 9.3,-4.03 27.38,-20.58 54.12,-49.77l348.73 -380.75c27.27,-29.77 42.69,-49.82 46.28,-60.15 3.44,-10.46 3.18,-22.72 -1.2,-36.88 -4.25,-14.31 -14.51,-28.77 -30.48,-43.4l-19.02 -17.43zm-1013.42 97.87l181.2 -188.1 16.64 16.77c-38.5,54.02 -56.55,110.48 -53.99,169.53 2.69,59.18 21.86,106.74 57.64,142.8 27.74,27.96 57.06,42.7 88.11,44.07 31.04,1.65 56.28,-7.3 75.57,-26.44 12.3,-12.2 20.3,-25.95 24.26,-41.26 4.95,-20.45 5.05,-45.79 0.16,-75.89 -3.82,-21.74 -17.15,-67.32 -40.27,-136.48 -32.76,-96.77 -46.12,-170.61 -40.22,-221.41 6.05,-50.66 27.38,-94.03 64.01,-130.36 46.41,-46.04 104.28,-67.4 173.61,-64.35 69.33,3.06 131.74,32.4 187.08,88.18 17.34,17.47 32.02,35.91 43.92,54.9 12.03,19.12 24.75,45.35 38.12,78.68 7.59,18.55 15.61,31.95 24.07,40.47 7.08,7.13 17.22,11.77 30.58,14.33 13.5,2.42 28.26,0.53 44.44,-5.81l14.14 14.25 -209.68 208.05 -14.14 -14.26c46.92,-70.41 68.91,-138.28 65.82,-203.17 -3.22,-65.04 -24.32,-117.34 -63.72,-157.04 -30.37,-30.61 -63.03,-46.75 -97.69,-48.42 -34.67,-1.67 -62.97,8.38 -85.2,30.44 -12.99,12.9 -22.25,29.01 -27.62,48.21 -5.36,19.19 -6.56,41.19 -3.6,66.54 3.1,25.22 13.67,64.66 31.7,118.34 25.47,75.15 40.28,132.58 44.73,172.01 4.29,39.28 1.51,75.61 -8.23,108.86 -9.88,33.37 -27.82,62.82 -53.68,88.48 -44.31,43.96 -98.14,65.2 -161.63,63.56 -63.35,-1.51 -119.5,-27.07 -168.6,-76.55 -17.89,-18.03 -33.13,-37.58 -45.58,-58.8 -9.4,-16.19 -18.92,-37.81 -28.43,-65 -9.5,-27.19 -17.93,-44.34 -25.28,-51.76 -7.07,-7.13 -14.72,-10.64 -23.07,-10.4 -8.35,0.25 -22.72,6.74 -42.69,19.61l-12.48 -12.58zm-622.54 -760.92l163.64 -133.97 12.72 15.54c-29.93,40.54 -48.44,73.26 -55.42,98.3 -7.13,25.18 -7.13,51.91 -0.29,80.16 3.9,15.64 17.37,37.69 40.57,66.03l37.43 45.71 468.05 -383.23c31.24,-25.57 49.37,-43.22 54.39,-52.93 5.02,-9.71 6.39,-22.03 4.2,-36.52 -2.16,-14.77 -10.25,-30.54 -24.22,-47.61l-16.22 -19.8 15.54 -12.73 258.23 315.4 -15.54 12.73 -16.34 -19.96c-14.22,-17.37 -28.9,-28.77 -43.87,-34.32 -10.5,-4.13 -22.66,-4.36 -36.48,-0.42 -9.78,2.67 -30.05,16.46 -60.67,41.54l-468.06 383.22 35.93 43.88c33.18,40.53 65.94,62.82 98.25,67.16 45.16,6.04 92.66,-5.88 142.92,-35.58l14.22 17.37 -163.64 133.98 -445.35 -543.94zm-357.76 -496.22c-73.17,-101.01 -99.55,-205.42 -78.85,-313.18 20.86,-107.86 79.29,-193.98 175.8,-258.68 82.27,-55.15 170.96,-79.52 265.95,-73.27 125.8,8.36 227.87,70.8 306.17,187.58 78.51,117.11 99.56,234.09 63.27,351.12 -28.77,92.53 -85.86,167.56 -171.74,225.13 -96.5,64.69 -198.85,85.66 -307.21,63 -108.53,-22.55 -192.79,-83.18 -253.39,-181.71zm26.58 -26.12c40.02,59.7 100.66,84.72 182.28,75.28 66.73,-7.98 146.65,-43.3 239.88,-105.81 110.73,-74.23 179.52,-148.79 206.3,-223.41 18.66,-52.1 11.59,-102.6 -21.31,-151.67 -22.15,-33.04 -48.69,-55.31 -79.36,-66.76 -39.3,-14.42 -86.82,-14.57 -142.16,-0.23 -55.34,14.34 -119.16,45.75 -191.14,93.99 -85.87,57.57 -144.77,108.68 -176.55,153.21 -31.94,44.65 -48.34,85.27 -49.17,121.87 -0.83,36.59 9.52,71.14 31.23,103.52zm-477.6 -743.28l243.94 -569.84 -296.03 159.65c-41.77,22.53 -66.67,43.56 -74.95,63.47 -11.14,27.04 -5.9,59.57 15.44,97.5l-17.68 9.54 -122.82 -227.75 17.67 -9.53c19.52,27.06 34.93,44.03 46.25,50.91 11.39,6.61 25.3,9.17 41.91,7.6 16.51,-1.75 41.23,-11.5 73.98,-29.17l574.03 -309.58 9.26 17.16 -323.76 775.32 439.54 -237.04c39.86,-21.5 62.04,-45.09 66.26,-70.86 4.22,-25.77 -0.15,-50.48 -12.77,-73.88l-8.79 -16.29 17.68 -9.54 132.36 245.42 -17.68 9.54c-20.91,-37.94 -42.91,-60.08 -66.47,-66.84 -23.46,-6.59 -53.49,-0.02 -90.4,19.89l-487.55 262.94 -10.09 24.02c-10.86,24.66 -16.25,44.11 -16.07,58.56 0.09,14.27 5.49,32.17 16.11,53.51l-17.68 9.53 -131.7 -244.21zm-256.62 -1663.15l211.07 -65.31c40.25,-12.46 65.08,-22.82 73.86,-31.1 9.02,-8.15 14.56,-19.55 16.93,-33.89 2.31,-14.52 -1.71,-38.84 -12.31,-73.07l19.19 -5.94 118.4 382.63 -19.19 5.94c-10.71,-34.61 -21.18,-57.14 -31.36,-67.38 -10.24,-10.44 -21.38,-16.47 -33.05,-18.22 -11.92,-1.88 -38.07,3.53 -78.33,15.99l-488.73 151.23c-40.44,12.52 -65.09,22.82 -73.86,31.1 -9.02,8.15 -14.56,19.55 -16.93,33.89 -2.31,14.53 1.71,38.84 12.31,73.08l-19.19 5.94 -107.57 -347.64c-28,-90.48 -42.23,-158.43 -42.6,-204.29 -0.57,-45.79 11.97,-87.19 37.63,-124.19 25.46,-36.95 60.89,-62.34 106.23,-76.37 55.12,-17.06 107,-11.26 155.41,17.26 30.81,18.29 58.93,48.55 84.36,90.76l197.91 -257.68c25.21,-33.78 40.29,-57 45.29,-69.47 6.63,-18.54 7.36,-38.14 2.32,-58.43l20.32 -6.28 72.88 235.52 -266.19 346.83 15.19 49.1zm-365.7 113.17l326.19 -100.94 -9.72 -31.42c-15.83,-51.17 -32.41,-88.09 -49.49,-110.64 -17.26,-22.49 -40.37,-37.18 -69.11,-44.16 -28.75,-6.98 -62.81,-4.48 -101.94,7.63 -56.81,17.59 -94.63,43.92 -113.45,79.02 -18.82,35.1 -19.1,82.18 -0.76,141.43l18.28 59.07zm-259.57 -958.01l312.57 -63.75 -3.11 -15.24c-9.95,-48.81 -32.4,-81.01 -67.37,-96.79 -34.93,-15.59 -82.76,-20.5 -143.41,-14.36l-4.49 -21.99 401.72 -81.93 4.48 21.99c-42.9,13.37 -76.82,30.34 -101.65,50.48 -24.98,20.36 -40.27,40.97 -45.99,62.23 -5.71,21.26 -4.83,50.22 2.65,86.88l215.72 -44c42.25,-8.62 67.56,-15.59 76.27,-21.18 8.75,-5.4 15.09,-13.73 19.06,-24.79 3.98,-11.06 3.84,-27.51 -0.61,-49.31l-9.37 -45.92c-14.6,-71.58 -42.93,-125.7 -84.73,-162.19 -41.81,-36.49 -98.51,-57.28 -170.24,-62.15l-4.29 -21.03 250.73 -15.17 135.1 662.38 -19.68 4.02 -5.16 -25.27c-4.53,-22.19 -12.23,-39.31 -22.9,-51.2 -7.41,-8.74 -18.01,-14.42 -32,-16.99 -9.9,-2.2 -34.26,0.56 -73.04,8.47l-505.9 103.18c-34.92,7.12 -56.14,12.46 -63.85,16.04 -12.57,6.38 -21.38,15.42 -26.43,27.1 -7.7,16.44 -9.13,37.03 -4.05,61.92l5.16 25.27 -19.68 4.01 -130.81 -641.34 226.9 -46.28 4.48 21.99c-53.36,22.14 -89.96,45.68 -110.06,70.28 -20.1,24.6 -32.19,56 -36.21,94.41 -2.47,22.41 2.09,62.48 13.9,120.36l16.29 79.88zm-238.2 -1134.83l259.18 -32.27 2.39 23.51c-63.91,17.77 -113.45,50.32 -148.61,97.83 -35.13,47.71 -50.14,96.73 -45.01,147.28 3.98,39.18 17.51,69.08 40.78,89.68 23.1,20.81 48.35,29.73 75.38,26.98 17.24,-1.75 32.1,-7.42 44.8,-16.83 16.71,-12.77 32.73,-32.42 47.86,-58.89 10.71,-19.3 29.01,-63.12 54.54,-131.43 35.39,-95.84 71.45,-161.65 108,-197.43 36.56,-35.58 80.42,-55.87 131.75,-61.09 65.04,-6.6 123.46,13.19 175.44,59.17 51.98,45.99 82.04,108.05 89.98,186.22 2.49,24.49 2.31,48.06 -0.38,70.31 -2.67,22.43 -9.29,50.82 -19.85,85.14 -5.77,19.2 -7.96,34.66 -6.74,46.61 1.01,10 5.99,19.98 14.76,30.37 8.97,10.37 21.64,18.19 38.21,23.44l2.03 19.98 -293.87 29.86 -2.03 -19.98c80.77,-25.23 140.55,-64.16 178.96,-116.56 38.4,-52.59 54.89,-106.52 49.24,-162.16 -4.36,-42.9 -19.59,-75.99 -45.49,-99.09 -25.9,-23.1 -54.23,-33.09 -85.38,-29.92 -18.22,1.85 -35.55,8.56 -51.79,20.1 -16.24,11.55 -31.01,27.89 -44.65,49.47 -13.45,21.56 -30.04,58.87 -49.79,111.94 -27.47,74.44 -52.07,128.41 -73.41,161.85 -21.37,33.24 -46.39,59.74 -74.87,79.45 -28.67,19.74 -61.14,31.35 -97.38,35.04 -62.1,6.31 -117.31,-11.05 -165.63,-52.25 -48.31,-41.02 -75.89,-96.21 -82.93,-165.56 -2.57,-25.27 -2.12,-50.05 1.54,-74.38 2.87,-18.5 9.07,-41.3 18.78,-68.41 9.71,-27.11 13.96,-45.75 12.9,-56.14 -1.01,-9.99 -4.75,-17.53 -11.4,-22.59 -6.65,-5.07 -21.9,-9.06 -45.52,-11.61l-1.79 -17.64zm411.63 -542.25l217.12 -11.06c42.67,-2.17 69.28,-6.1 80.03,-11.97 10.75,-5.68 19.13,-15.37 25.14,-29.08 5.82,-13.51 7.92,-38.07 6.12,-73.46l20.06 -1.02 20.26 397.66 -20.07 1.02c-1.84,-36.19 -6.44,-60.6 -13.97,-73.03 -7.35,-12.64 -16.66,-21.23 -27.74,-25.79 -11.09,-4.76 -37.96,-5.95 -80.64,-3.78l-508.57 25.92c-42.67,2.17 -69.29,6.09 -80.03,11.96 -10.76,5.68 -19.14,15.17 -25.16,28.69 -5.82,13.51 -7.92,38.07 -6.1,73.86l-20.05 1.02 -17.38 -341.02c-5.72,-112.29 10.23,-193.95 47.67,-244.76 37.62,-51.01 86.33,-77.94 146.31,-81 50.93,-2.59 95.2,10.92 133,40.74 37.78,29.62 64.58,71.83 80.59,126.62 11.13,36.7 18.87,99.59 23.4,188.49zm-383.49 19.54l338.65 -17.25c0.14,-12.82 0.04,-22.48 -0.3,-28.97 -2.39,-47.01 -18.21,-82.68 -47.43,-106.62 -29.21,-23.95 -73.14,-34.53 -131.74,-31.54 -58.21,2.96 -100.04,17.92 -125.69,44.66 -25.66,26.74 -37.28,65.59 -34.71,115.94l1.21 23.79zm-53.19 -566.36l20.28 -403.57 20.06 1.01 -1.01 20.25c-1.53,30.48 0.57,51.49 6.49,63.22 5.71,11.72 14.16,20.23 25.14,25.51 10.96,5.48 38.96,9.26 84,11.52l382.72 19.23c70.02,3.52 116.5,0.53 139.64,-8.76 23.35,-9.47 42.9,-25.84 59.26,-49.27 16.16,-23.44 25.18,-53.75 27.03,-90.52 2.12,-42.28 -5.51,-78.74 -23.09,-109.4 -17.59,-30.66 -42.62,-54.19 -75.32,-70.63 -32.69,-16.43 -90.53,-26.83 -173.53,-31l-318.8 -16.02c-35.2,-1.77 -60.76,0.69 -76.07,7.22 -15.51,6.52 -26.4,15.24 -32.86,26.15 -9.72,16.86 -15.46,41.02 -17.06,72.68l-20.05 -1 13.57 -270.23 20.06 1.01 -0.81 16.13c-1.1,21.83 2.52,40.15 10.64,55.14 8.11,15 20.95,26.3 38.53,33.68 12.14,5.54 34.24,9.21 66.49,10.83l296.97 14.92c91.84,4.62 157.82,14.04 197.92,28.09 40.29,14.25 76.19,45.43 108.06,93.96 31.85,48.72 45.77,113.3 41.7,194.33 -3.4,67.66 -15.06,119.32 -35.01,155.19 -27.11,49.11 -60.37,83.13 -99.95,101.84 -39.39,18.72 -91.63,26.55 -156.54,23.29l-382.91 -19.24c-45.43,-2.28 -73.68,-1.14 -84.95,3.23 -11.27,4.56 -20.55,12.57 -27.85,24.62 -7.11,12.07 -11.39,34.53 -12.66,67.59l-20.06 -1zm509.7 -1425.48c28.38,-71.17 57.14,-119.97 86.02,-146.04 41.19,-37.54 89.41,-52.1 144.71,-43.66 58.2,8.88 102.92,39.6 133.91,92.34 37.38,64.47 47.61,151.48 30.92,260.88l-59.98 393.22 -19.86 -3.03c5.47,-35.81 5.87,-60.65 0.99,-74.35 -4.66,-13.86 -12.05,-24.15 -21.99,-30.84 -9.91,-6.89 -35.99,-13.46 -78.23,-19.91l-503.41 -76.79c-42.24,-6.44 -69.1,-7.95 -80.8,-4.36 -11.68,3.39 -21.83,11.21 -30.41,23.05 -8.41,12.06 -15.4,35.69 -20.81,71.13l-19.85 -3.03 56.6 -371.03c13.54,-88.77 31.08,-150.24 52.49,-184.81 21.41,-34.59 49.39,-60 84,-76.63 34.58,-16.44 69.69,-22.03 104.92,-16.66 37.38,5.7 68.39,24.37 93.43,56.08 24.85,31.68 40.71,83.1 47.36,154.43zm-47.1 205.55c8.32,-54.51 8.43,-95.72 0.11,-123.48 -8.12,-27.73 -22.22,-50.2 -42.3,-67.41 -19.89,-17.17 -47.04,-28.49 -81.31,-33.71 -34.26,-5.23 -63.33,-2.69 -87.21,7.61 -24.07,10.27 -43.59,27.21 -58.97,50.96 -15.34,23.55 -27,63.41 -35.16,119.53l304.85 46.5zm44.38 6.77l248 37.83 28.62 4.37c20.44,3.12 36.79,0.43 48.68,-8.32 12.08,-8.71 19.66,-23.1 22.74,-43.34 4.58,-29.98 1.95,-58.47 -7.62,-85.82 -9.58,-27.36 -26.1,-49.6 -49.75,-66.95 -23.45,-17.32 -51.03,-28.5 -82.37,-33.28 -36.01,-5.5 -69.49,-2.84 -100.39,7.79 -30.94,10.82 -54.56,29.93 -70.76,57.73 -16.19,27.81 -28.57,71.13 -37.16,129.99zm393.03 -1259.35l258.07 97 -173.06 671.6 -19.45 -5.01 6.44 -24.97c5.65,-21.93 6.22,-40.7 1.84,-56.06 -2.84,-11.1 -9.88,-20.85 -21.33,-29.29 -7.94,-6.31 -31.04,-14.51 -69.37,-24.39l-499.98 -128.84c-39.09,-10.07 -64.04,-14.26 -74.79,-12.76 -10.81,1.68 -21.5,7.68 -31.95,18.2 -10.63,10.48 -18.57,26.32 -24.08,47.69l-6.43 24.98 -19.45 -5.01 104.07 -403.88 19.45 5.01 -8.55 33.18c-5.65,21.93 -6.21,40.7 -1.89,56.25 2.83,11.11 9.83,21.04 21.13,30.05 7.93,6.32 31.03,14.51 69.36,24.39l483.97 124.72c38.71,9.97 64.09,14.07 75.9,12.44 11.81,-1.63 21.88,-8.39 30.57,-19.98 5.64,-8.5 13.16,-30.57 22.3,-66.04l16.22 -62.92c10.32,-40.05 11.86,-75.24 4.63,-105.57 -7.23,-30.33 -23.55,-59.34 -49.04,-86.66 -25.5,-27.31 -65.74,-57.4 -120.76,-90.09l6.19 -24.03zm426.85 -439.74l18.85 6.93 -140.6 382.6 -18.86 -6.93 8.9 -24.21c7.81,-21.26 10.25,-39.87 7.43,-55.6 -1.72,-11.33 -7.75,-21.73 -18.3,-31.27 -7.26,-7.07 -29.43,-17.53 -66.59,-31.18l-484.63 -178.09c-37.89,-13.93 -62.3,-20.58 -73.15,-20.17 -10.92,0.6 -22.16,5.49 -33.6,14.92 -11.62,9.37 -21.11,24.34 -28.72,45.04l-8.9 24.21 -18.85 -6.93 140.6 -382.6 18.85 6.92 -8.9 24.21c-7.74,21.07 -10.11,39.5 -7.28,55.23 1.78,11.14 7.75,21.72 18.16,31.64 7.26,7.07 29.43,17.53 66.58,31.19l484.63 178.09c37.9,13.92 62.3,20.59 73.22,19.99 10.99,-0.79 22.23,-5.68 33.67,-15.11 11.63,-9.37 21.11,-24.34 28.58,-44.67l8.9 -24.21zm-205.9 -718.85l424.79 -117.56c59.94,-16.69 103.48,-34.56 130.62,-53.62 19.35,-13.82 33.44,-31.37 42.29,-52.21l18.49 7.85 -159.01 374.26 -18.49 -7.86c7.91,-24.67 10.58,-41.5 8.24,-50.62 -2.51,-9.2 -7.57,-15.41 -15.54,-18.8 -15.04,-6.39 -50.17,-2.27 -105.54,12.72l-277.41 76.84 10.28 36.25 197.19 83.77c37.88,16.09 62.37,23.93 73.38,23.68 11.08,-0.42 22.53,-5.19 34.21,-14.55 11.86,-9.3 23.37,-27.31 34.68,-53.95l18.49 7.85 -154.31 363.21 -18.49 -7.86 10.09 -23.74c8.86,-20.84 12.21,-39.31 10.17,-55.15 -1.14,-11.4 -6.65,-22.09 -16.72,-32.14 -6.9,-7.43 -28.53,-18.97 -64.96,-34.45l-475.21 -201.89c-37.15,-15.79 -61.2,-23.65 -72.06,-23.77 -10.94,0.06 -22.41,4.39 -34.3,13.24 -12.08,8.77 -22.3,23.26 -30.92,43.56l-10.09 23.74 -18.49 -7.85 152 -357.77 18.48 7.86c-10.32,24.29 -14.62,44.5 -12.95,60.18 1.15,11.4 6.41,22.19 15.95,32.45 7.11,7.94 29.03,19.82 65.81,35.45l224.92 95.56 -101.79 -359.69c-14.84,-50.17 -31.64,-79.12 -49.94,-86.9 -13.77,-5.85 -27.7,-2.78 -42.14,9.05 -7.3,6.1 -18,24.23 -32.17,54.58l-18.49 -7.85 119.12 -280.38 18.48 7.85c-8.89,25.97 -12.75,47.64 -11.41,65.12 1.17,17.4 12.17,61.01 32.63,130.68l80.09 282.86zm707.4 -792.32l-142.89 233.69 47.41 68.92c16.19,22.6 31.56,38.22 45.84,46.96 18.98,11.61 37.55,12.57 55.76,3.17 10.66,-5.72 28.04,-25.1 51.99,-58.23l17.14 10.48 -135.71 221.93 -17.13 -10.48c10.89,-26.11 12.93,-52.11 5.99,-77.35 -7.01,-25.53 -29.24,-65.43 -66.88,-119.37l-386.52 -564.1 5.76 -9.41 694.38 93.84c66.49,9.03 111.09,10.45 133.74,3.99 17.3,-4.89 32.73,-16.92 46.94,-36.38l17.14 10.48 -197.44 322.89 -17.14 -10.48 8.11 -13.27c15.82,-25.87 23.32,-46.44 22.31,-61.38 -0.79,-10.41 -6.36,-18.66 -16.28,-24.72 -6.05,-3.7 -12.78,-6.66 -20.39,-8.55 -3.27,-1.07 -18.85,-3.91 -46.51,-8.12l-105.63 -14.5zm-45.94 -6.4l-288.56 -39.57 165.28 241.17 123.27 -201.6zm142.96 -1169.31l212.12 152.38 -14.22 18.88c-58.97,-30.37 -117.44,-40.14 -175.51,-29.15 -58.19,11.15 -102.51,36.93 -133.07,77.51 -23.69,31.46 -34.08,62.59 -30.99,93.51 2.81,30.96 15.28,54.66 36.99,71.01 13.85,10.43 28.6,16.36 44.31,18.09 20.95,1.98 46.04,-1.56 75.12,-10.71 20.97,-6.89 64.17,-26.62 129.3,-59.4 91.07,-46.28 162.25,-70.08 213.37,-71.52 51,-1.27 96.97,13.63 138.19,44.67 52.22,39.33 81.65,93.54 88.55,162.6 6.91,69.05 -13.2,135.02 -60.47,197.78 -14.81,19.66 -30.95,36.84 -48.03,51.34 -17.2,14.65 -41.34,30.99 -72.41,49 -17.27,10.17 -29.38,20.03 -36.6,29.62 -6.05,8.02 -9.18,18.73 -9.8,32.31 -0.46,13.7 3.53,28.05 12.12,43.15l-12.08 16.04 -235.93 -177.71 12.08 -16.04c76.4,36.35 146.73,48.39 210.51,36.03 63.91,-12.51 112.64,-40.88 146.29,-85.55 25.94,-34.44 37.24,-69.08 33.93,-103.63 -3.32,-34.55 -17.31,-61.12 -42.33,-79.96 -14.63,-11.02 -31.9,-17.87 -51.67,-20.44 -19.77,-2.56 -41.71,-0.59 -66.37,5.97 -24.52,6.68 -62.04,22.79 -112.59,48.33 -70.73,35.97 -125.44,58.86 -163.82,68.91 -38.27,9.88 -74.62,12.33 -108.91,7.45 -34.44,-5 -66.16,-18.53 -95.26,-40.45 -49.86,-37.56 -78.59,-87.79 -86.06,-150.86 -7.59,-62.91 9.66,-122.15 51.61,-177.83 15.28,-20.29 32.45,-38.17 51.66,-53.53 14.67,-11.63 34.71,-24.15 60.26,-37.45 25.54,-13.3 41.32,-24.09 47.6,-32.43 6.04,-8.03 8.42,-16.09 6.98,-24.33 -1.44,-8.23 -9.92,-21.52 -25.52,-39.44l10.66 -14.16zm996.27 7.75l15.44 12.85 -260.6 313.43 -15.45 -12.85 16.49 -19.83c14.48,-17.42 23.01,-34.14 25.61,-49.9 2.18,-11.24 -0.03,-23.07 -6.78,-35.59 -4.47,-9.1 -21.86,-26.37 -52.3,-51.68l-397.01 -330.1c-31.04,-25.8 -51.81,-40.25 -62.17,-43.5 -10.49,-3.09 -22.72,-2.24 -36.66,2.81 -14.08,4.93 -28.04,15.86 -42.14,32.83l-16.49 19.83 -15.44 -12.84 260.61 -313.43 15.44 12.84 -16.49 19.84c-14.35,17.26 -22.75,33.83 -25.36,49.6 -2.05,11.09 0.02,23.07 6.52,35.89 4.47,9.1 21.86,26.37 52.3,51.68l397.01 330.1c31.04,25.81 51.81,40.26 62.3,43.35 10.61,2.94 22.85,2.09 36.78,-2.96 14.09,-4.93 28.05,-15.87 41.89,-32.52l16.5 -19.84zm282.95 -1380.93c89.53,-86.84 189.11,-127.84 298.72,-122.73 109.74,5.26 203.31,50.8 281.11,137.08 66.33,73.55 103.1,157.86 110.46,252.77 9.68,125.7 -37.55,235.65 -141.97,329.8 -104.71,94.42 -217.5,131.95 -338.5,112.73 -95.69,-15.27 -178.1,-61.07 -247.33,-137.85 -77.8,-86.28 -113.16,-184.6 -106.19,-295.08 6.84,-110.64 54.82,-202.69 143.7,-276.73zm29.64 22.59c-53.38,48.13 -69.49,111.71 -48.5,191.15 17.42,64.9 63.79,138.96 138.95,222.32 89.28,99.01 172.9,156.45 250.57,172.32 54.23,11.03 103.2,-3.17 147.08,-42.73 29.54,-26.64 47.8,-56.09 54.75,-88.08 8.67,-40.96 2.04,-88.01 -20.06,-140.74 -22.09,-52.73 -62.28,-111.42 -120.3,-175.76 -69.23,-76.78 -128.23,-127.79 -176.85,-152.89 -48.75,-25.24 -91.3,-35.67 -127.63,-31.27 -36.34,4.39 -69.05,19.57 -98.01,45.69zm1336.04 -437.66l139.61 237.74 -556.97 413.26 -11.97 -16.13 20.72 -15.37c18.19,-13.49 30.43,-27.72 36.69,-42.43 4.78,-10.41 5.44,-22.42 1.84,-36.18 -2.19,-9.9 -15,-30.8 -38.59,-62.59l-307.65 -414.64c-24.06,-32.42 -40.82,-51.37 -50.12,-56.97 -9.47,-5.49 -21.55,-7.55 -36.28,-5.94 -14.86,1.46 -31,8.78 -48.71,21.92l-20.71 15.37 -11.97 -16.13 334.94 -248.52 11.97 16.13 -27.52 20.42c-18.18,13.49 -30.42,27.73 -36.84,42.54 -4.78,10.41 -5.59,22.54 -2.47,36.65 2.19,9.9 15,30.8 38.59,62.58l297.81 401.36c23.82,32.1 40.97,51.25 51.18,57.41 10.21,6.16 22.29,7.24 36.33,3.69 9.74,-3.06 29.46,-15.48 58.88,-37.31l52.18 -38.72c33.21,-24.64 56.54,-51.03 70,-79.15 13.45,-28.13 19.02,-60.95 16.38,-98.22 -2.64,-37.27 -15,-85.98 -37.21,-145.99l19.92 -14.78zm612.41 -67.36l10.38 17.2 -349.06 210.5 -10.37 -17.2 22.09 -13.32c19.39,-11.7 32.94,-24.69 40.58,-38.73 5.75,-9.91 7.55,-21.8 5.29,-35.84 -1.23,-10.06 -11.99,-32.09 -32.43,-65.99l-266.64 -442.14c-20.85,-34.57 -35.72,-55.03 -44.45,-61.5 -8.9,-6.37 -20.72,-9.58 -35.55,-9.38 -14.93,0.04 -31.7,5.78 -50.59,17.17l-22.09 13.32 -10.37 -17.2 349.06 -210.51 10.37 17.2 -22.09 13.32c-19.22,11.59 -32.6,24.5 -40.24,38.52 -5.58,9.81 -7.55,21.8 -5.63,36.05 1.24,10.06 12,32.09 32.43,65.99l266.64 442.14c20.84,34.57 35.72,55.04 44.61,61.4 9.06,6.26 20.89,9.47 35.72,9.27 14.93,-0.03 31.7,-5.78 50.24,-16.96l22.09 -13.33z"/>
    <path class="fil11" d="M27884.37 25286.1l8.67 18.12c-21.74,14.33 -36.27,29.58 -43.87,46.1 -10.26,22.81 -18.49,75.86 -24.77,158.99l-30.55 330.29 81.86 171.05c17.6,36.76 30.25,58.65 38.41,65.67 8.06,7.27 19.44,11.43 33.86,12.83 14.69,1.49 31.22,-2.28 50.05,-11.29l39.61 -18.95 8.67 18.12 -395.39 189.22 -8.67 -18.12 36.77 -17.59c20.61,-9.86 35.34,-21.49 43.93,-34.56 6.68,-9.31 9.61,-20.97 9.24,-35.42 -0.26,-10.13 -8.85,-33.1 -25.94,-68.8l-67.91 -141.92 -311.62 -224.18c-61.77,-44.23 -101.87,-68.27 -120.47,-72.46 -18.6,-4.2 -39.35,-1.04 -62.08,9.41l-8.67 -18.12 338.38 -161.93 8.67 18.11 -15.1 7.23c-20.43,9.77 -33.37,19.68 -38.65,29.63 -5.37,9.77 -6.39,18.12 -3.17,24.87 6.04,12.61 35.2,37.96 87.48,75.59l239.59 171.76 25.86 -273.03c6.2,-67.8 5.26,-110.36 -2.98,-127.59 -4.59,-9.59 -12.77,-15.28 -24.89,-17.34 -15.89,-3.09 -40.11,1.95 -72.58,15.3l-8.67 -18.12 214.93 -102.85zm1391.49 -499.1l62.52 202.04 -19.19 5.94c-26.29,-42.99 -49.63,-72.46 -70.21,-88.35 -20.64,-16.08 -45.4,-26.15 -74.15,-30.45 -15.96,-2.27 -41.46,1.91 -76.45,12.74l-56.43 17.46 178.82 577.89c11.94,38.57 21.45,62 28.56,70.32 7.11,8.31 18.01,14.22 32.26,17.64 14.5,3.55 32.16,2 53.23,-4.52l24.46 -7.57 5.94 19.19 -389.41 120.5 -5.94 -19.19 24.64 -7.63c21.45,-6.63 37.53,-15.94 48.31,-27.73 7.78,-8.18 12.57,-19.35 14.12,-33.64 1.21,-10.06 -3.94,-34.03 -15.64,-71.84l-178.82 -577.9 -54.18 16.77c-50.04,15.48 -83.02,37.44 -99.21,65.74 -22.59,39.56 -29.43,88.05 -20.84,145.79l-21.45 6.64 -62.52 -202.04 671.58 -207.81zm679.75 419.11l-268.39 54.74 -18.11 81.67c-5.49,27.25 -6.45,49.15 -3.11,65.54 4.45,21.81 16.4,36.05 35.69,42.96 11.45,3.9 37.48,3.42 78.04,-1.64l4.01 19.68 -254.88 51.99 -4.01 -19.68c26.53,-9.84 46.94,-26.05 60.68,-48.35 13.9,-22.53 27.94,-65.99 41.75,-130.31l149.28 -667.32 10.81 -2.2 404.66 572.03c38.71,54.81 68.07,88.41 88.24,100.58 15.37,9.32 34.69,12.41 58.62,9.55l4.01 19.68 -370.84 75.64 -4.01 -19.68 15.24 -3.11c29.71,-6.06 49.88,-14.59 60.11,-25.52 7.08,-7.68 9.32,-17.38 7,-28.76 -1.42,-6.95 -3.84,-13.89 -7.65,-20.75 -1.44,-3.12 -9.98,-16.45 -25.76,-39.56l-61.39 -87.16zm-26.63 -37.97l-167.74 -238.11 -63.8 285.33 231.54 -47.22zm444.83 -234.33l-3.74 -24.53c40.89,-25.76 68.85,-55.32 83.88,-88.69 15.22,-33.39 20.41,-66.06 15.5,-98.17 -0.92,-6.04 -3,-10.5 -6.06,-13.62 -3.2,-2.7 -5.94,-3.68 -8.66,-3.26 -2.34,0.36 -5.44,2.22 -9.72,5.47 -9.92,8.08 -23.04,13.48 -39.4,15.97 -22.39,3.41 -42.99,-2.41 -62.21,-17.4 -19.19,-14.8 -30.52,-34.18 -34.08,-57.55 -3.83,-25.11 2.36,-48.57 18.33,-70.52 16.2,-21.79 37.71,-34.84 64.77,-38.96 32.7,-4.99 62.47,3.42 89.5,25.19 27.03,21.78 43.98,54.64 50.7,98.64 8.28,54.31 -0.7,105.08 -27.16,152.34 -26.29,47.04 -70.23,85.41 -131.64,115.09zm1134.56 37.34l-15.55 275.26 -692.65 35.29 -1.02 -20.06 25.76 -1.31c22.62,-1.15 40.7,-6.21 54.05,-14.98 9.75,-6.01 16.95,-15.65 21.59,-29.1 3.65,-9.45 4.58,-33.95 2.57,-73.48l-26.27 -515.65c-2.05,-40.32 -5.5,-65.38 -10.14,-75.2 -4.84,-9.81 -13.75,-18.23 -26.91,-25.05 -13.17,-7.02 -30.67,-9.87 -52.7,-8.75l-25.76 1.31 -1.02 -20.06 416.53 -21.22 1.02 20.06 -34.22 1.74c-22.62,1.15 -40.69,6.22 -54.25,14.99 -9.75,6.01 -17.14,15.66 -22.37,29.14 -3.67,9.45 -4.59,33.95 -2.57,73.48l25.44 499.13c2.03,39.92 5.69,65.37 10.78,76.15 5.08,10.78 14.54,18.38 28.19,23.2 9.8,2.85 33.1,3.44 69.69,1.58l64.89 -3.31c41.3,-2.11 75.35,-11.13 102.13,-27.09 26.79,-15.96 49.62,-40.19 68.07,-72.68 18.46,-32.49 35.17,-79.87 49.94,-142.14l24.78 -1.26zm546.16 251.96l0.01 20.09 -407.62 0.17 -0.01 -20.09 25.79 -0.01c22.65,-0.01 40.96,-4.15 54.74,-12.23 10.05,-5.52 17.72,-14.78 23.03,-27.97 4.13,-9.26 6.29,-33.68 6.27,-73.26l-0.21 -516.32c-0.02,-40.37 -2.2,-65.57 -6.33,-75.61 -4.34,-10.05 -12.81,-18.9 -25.61,-26.38 -12.81,-7.68 -30.14,-11.41 -52.19,-11.4l-25.8 0.01 -0.01 -20.08 407.62 -0.17 0.01 20.09 -25.8 0.01c-22.44,0.01 -40.56,4.16 -54.34,12.24 -9.84,5.52 -17.71,14.77 -23.42,27.97 -4.14,9.26 -6.29,33.68 -6.27,73.25l0.21 516.32c0.01,40.37 2.19,65.57 6.53,75.61 4.53,10.04 13.01,18.9 25.81,26.37 12.8,7.68 30.13,11.41 51.79,11.4l25.8 -0.01zm676.59 -197.18l264.72 -492.39 315.23 31.88 -2.02 19.98 -25.27 -2.55c-22.73,-2.3 -41.56,-0.04 -56.11,6.79 -10.15,4.52 -18.7,12.76 -25.69,25.12 -5.06,8.98 -9.67,33.06 -13.65,72.44l-51.93 513.7c-4.06,40.17 -4.44,65.46 -1.34,75.87 3.3,10.43 10.83,20.1 23.21,28.87 12.16,8.95 29.02,14.41 50.77,16.61l25.27 2.56 -2.02 19.99 -405.56 -41.01 2.02 -19.98 25.27 2.56c22.72,2.3 41.56,0.05 56.09,-6.6 10.15,-4.51 18.73,-12.95 25.73,-25.5 5.05,-8.79 9.65,-32.87 13.64,-72.25l58.31 -576.78 -371.11 679.35 -13.71 -1.39 -232.25 -735.21 -55.42 548.18c-3.9,38.59 -5.32,62.4 -4.25,71.41 3.15,19.71 12.34,36.48 27.77,50.31 15.43,13.83 41.07,22.56 76.72,26.16l-2.02 19.99 -266.85 -26.98 2.02 -19.98 8.23 0.83c17.2,2.13 33.54,1.01 49.05,-3.55 15.7,-4.55 27.68,-11.45 36.33,-20.67 8.85,-9.2 16.15,-22.71 22.11,-40.52 1.22,-4.23 3.59,-23.78 7.16,-59.04l49.8 -492.54c4.06,-40.16 4.64,-65.44 1.32,-75.67 -3.1,-10.41 -10.83,-20.09 -23.19,-29.07 -12.35,-8.96 -29.41,-14.45 -51.16,-16.65l-24.88 -2.52 2.02 -19.98 317.78 32.13 167.87 536.12zm595.61 560.19l4.98 -24.3c47.28,-10.02 83.73,-28.09 109.38,-54.19 25.84,-26.07 41.95,-54.73 48.39,-86.18 1.3,-6.36 0.94,-11.46 -0.86,-15.45 -2.07,-3.64 -4.3,-5.5 -7,-6.06 -2.31,-0.47 -5.87,0.21 -11.01,1.76 -12.11,4.16 -26.29,4.67 -42.49,1.36 -22.19,-4.54 -39.51,-17.13 -52.35,-37.85 -12.89,-20.53 -16.8,-42.63 -12.07,-65.78 5.1,-24.89 19.01,-44.75 41.59,-59.83 22.74,-14.84 47.44,-19.63 74.25,-14.15 32.41,6.63 57.43,24.82 75.26,54.6 17.82,29.78 22.37,66.49 13.44,110.09 -11.02,53.82 -37.01,98.35 -78.18,133.54 -40.94,35.04 -95.44,55.84 -163.33,62.45zm1434.61 -609.04l-96.03 307.92 21.43 6.69c33.09,10.32 61.49,13.81 85.65,10.42 23.98,-3.46 46.87,-14.68 68.61,-33.47 21.8,-18.99 41.29,-47.76 58.11,-86.46l19.18 5.98 -116.79 374.47 -19.18 -5.98c15.09,-72.86 10.65,-125.4 -13.34,-157.63 -23.98,-32.23 -55.62,-54.47 -94.91,-66.73l-21.43 -6.69 -71.41 228.97c-12.02,38.54 -17.46,63.25 -16.31,74.12 1.33,10.93 6.78,21.92 16.77,32.87 9.93,11.14 25.36,19.87 46.04,26.32l24.63 7.68 -5.98 19.18 -389.14 -121.36 5.98 -19.18 24.63 7.68c21.62,6.74 40.33,8.25 55.89,4.65 11.23,-2.27 21.31,-8.82 30.32,-19.83 6.7,-7.61 16.04,-30.27 27.82,-68.06l153.72 -492.9c12.01,-38.54 17.45,-63.25 16.49,-74.06 -1.14,-10.88 -6.59,-21.86 -16.57,-32.81 -9.93,-11.14 -25.36,-19.88 -46.42,-26.44l-24.62 -7.68 5.97 -19.17 629.39 196.28 -66.84 214.3 -22.56 -7.03c10.63,-51.96 9.08,-93.29 -4.6,-124.16 -13.49,-30.82 -38.79,-57.48 -75.72,-79.93 -20.48,-12.38 -60.4,-27.91 -119.99,-46.5l-68.81 -21.46zm669.15 807.16l-252.1 -107.11 -61.24 57c-19.97,19.33 -33.19,36.82 -39.73,52.23 -8.7,20.47 -6.93,38.99 5.04,55.62 7.22,9.7 28.93,24.06 65.22,42.9l-7.86 18.49 -239.41 -101.72 7.86 -18.49c27.43,6.95 53.44,5.16 77.4,-5.42 24.22,-10.67 60.43,-38.51 108.28,-83.65l501.37 -465.01 10.15 4.32 8.93 700.63c0.8,67.1 5.93,111.43 15.64,132.89 7.37,16.39 21.53,29.9 42.87,41.1l-7.85 18.49 -348.34 -147.99 7.86 -18.49 14.32 6.08c27.91,11.86 49.36,16.27 63.99,13.07 10.18,-2.31 17.53,-9.03 22.07,-19.72 2.77,-6.52 4.71,-13.62 5.46,-21.42 0.59,-3.39 1.11,-19.22 1.22,-47.19l-1.14 -106.6zm-0.41 -46.38l-3.14 -291.24 -214.35 198.84 217.49 92.41zm930.87 -119.23l105.88 610.76 161.26 -295.15c22.76,-41.64 32.18,-72.86 28.28,-94.05 -5.38,-28.75 -27.49,-53.17 -66.06,-73.35l9.63 -17.62 227.07 124.07 -9.63 17.62c-31.11,-12.06 -53.28,-17.89 -66.52,-17.49 -13.15,0.66 -26.21,6.1 -39.28,16.45 -12.89,10.46 -28.31,32.11 -46.15,64.77l-312.72 572.33 -17.11 -9.35 -150.89 -826.53 -239.45 438.24c-21.71,39.74 -27.46,71.61 -16.96,95.52 10.5,23.91 27.63,42.25 50.96,54.99l16.24 8.88 -9.63 17.63 -244.69 -133.7 9.63 -17.63c38.2,20.43 68.71,27 92.16,19.84 23.26,-7.26 44.86,-29.12 64.97,-65.93l265.6 -486.11 -4.62 -25.63c-4.32,-26.59 -10.4,-45.85 -18.42,-57.87 -7.85,-11.92 -22.13,-23.98 -42.66,-36.1l9.64 -17.62 243.48 133.03zm1800.92 1259.54l-12.84 15.44c-24.82,-14.5 -54.05,-19.08 -87.78,-13.31 -24.76,4.52 -72.31,24.13 -142.82,58.72l-588.95 288.84 -14.69 -12.22 193.14 -649.95c23.39,-78.64 35.06,-126.56 35.04,-143.47 -0.05,-17.2 -10.66,-36.78 -31.71,-58.89l12.84 -15.45 287.09 238.7 -12.84 15.44 -9.69 -8.06c-26.04,-21.65 -46.67,-33.18 -61.61,-34.32 -10.46,-1.28 -19.33,2.62 -26.63,11.4 -4.53,5.45 -8.76,12.69 -12.51,22.13 -3.62,9.28 -11.96,35.64 -25.03,79.07l-120.52 405.83 339.71 -168.02c41.58,-20.75 68.64,-35.12 81.01,-43.53 12.53,-8.28 21.99,-16.28 28.54,-24.16 7.43,-8.93 11.55,-18.82 12.65,-29.69 0.81,-10.84 -1.59,-21.81 -7.81,-33.12 -8.56,-15.57 -23.23,-32.12 -44.28,-49.62l12.84 -15.44 196.84 163.67zm-46.69 729.9l-192.93 -194.44 -78.23 29.63c-25.8,10.34 -44.64,21.55 -56.52,33.33 -15.8,15.67 -21.15,33.48 -16.36,53.41 3.01,11.71 17.7,33.21 44.17,64.36l-14.26 14.15 -183.22 -184.66 14.26 -14.15c22.77,16.8 47.52,24.97 73.7,24.24 26.46,-0.73 70.51,-12.81 131.87,-36.53l639.93 -241.03 7.77 7.83 -256.53 652.04c-24.62,62.42 -36.62,105.4 -35.74,128.94 0.62,17.96 8.63,35.82 24.15,54.26l-14.26 14.15 -266.57 -268.67 14.26 -14.15 10.96 11.05c21.36,21.53 39.55,33.72 54.3,36.28 10.3,1.71 19.64,-1.74 27.89,-9.92 5.04,-4.99 9.51,-10.82 13.16,-17.77 1.82,-2.91 8.28,-17.38 18.96,-43.23l39.24 -99.12zm17.16 -43.1l107.16 -270.82 -273.6 103.08 166.44 167.74zm744.19 1228.43l-16.13 11.97 -242.89 -327.35 16.13 -11.97 15.37 20.72c13.49,18.18 27.72,30.43 42.42,36.69 10.41,4.78 22.42,5.44 36.18,1.84 9.9,-2.19 30.8,-15 62.59,-38.59l414.64 -307.66c32.42,-24.06 51.37,-40.82 56.97,-50.12 5.49,-9.46 7.55,-21.54 5.94,-36.28 -1.47,-14.86 -8.79,-31 -21.92,-48.71l-15.37 -20.71 16.13 -11.97 242.89 327.35 -16.13 11.96 -15.38 -20.72c-13.37,-18.03 -27.5,-30.11 -42.19,-36.37 -10.29,-4.62 -22.41,-5.43 -36.41,-2.16 -9.9,2.19 -30.8,15 -62.58,38.59l-414.64 307.66c-32.42,24.06 -51.38,40.82 -56.86,50.28 -5.37,9.62 -7.44,21.7 -5.82,36.44 1.46,14.86 8.78,31 21.68,48.4l15.38 20.72zm855.26 -112.81l-188.21 590.6 279.37 -187.29c39.42,-26.43 62.19,-49.75 68.53,-70.36 8.5,-27.98 0.17,-59.86 -24.72,-95.57l16.68 -11.18 144.09 214.92 -16.68 11.18c-22.03,-25.07 -38.99,-40.48 -50.92,-46.24 -11.97,-5.49 -26.06,-6.7 -42.44,-3.55 -16.27,3.32 -39.94,15.4 -70.85,36.12l-541.73 363.17 -10.86 -16.2 247.97 -802.78 -414.8 278.08c-37.62,25.22 -57.43,50.83 -59.16,76.88 -1.74,26.06 4.99,50.23 19.79,72.32l10.3 15.38 -16.68 11.18 -155.27 -231.61 16.68 -11.18c24.45,35.76 48.48,55.69 72.57,60.16 23.99,4.31 53.24,-5.11 88.08,-28.46l460.11 -308.45 7.75 -24.87c8.45,-25.58 11.95,-45.47 10.39,-59.83 -1.46,-14.19 -8.55,-31.49 -21.16,-51.72l16.68 -11.18 154.5 230.46zm510.3 845.43l-243.95 569.85 296.03 -159.65c41.77,-22.53 66.67,-43.56 74.95,-63.47 11.14,-27.04 5.91,-59.57 -15.44,-97.5l17.68 -9.53 122.82 227.74 -17.67 9.53c-19.52,-27.06 -34.94,-44.02 -46.25,-50.91 -11.39,-6.61 -25.3,-9.17 -41.91,-7.6 -16.51,1.75 -41.23,11.5 -73.98,29.17l-574.03 309.58 -9.26 -17.16 323.76 -775.32 -439.55 237.04c-39.86,21.5 -62.04,45.09 -66.26,70.86 -4.22,25.77 0.16,50.48 12.77,73.88l8.79 16.29 -17.68 9.54 -132.36 -245.42 17.68 -9.54c20.91,37.94 42.91,60.08 66.47,66.84 23.46,6.59 53.48,0.02 90.4,-19.89l487.55 -262.94 10.09 -24.02c10.86,-24.66 16.25,-44.11 16.08,-58.56 -0.09,-14.27 -5.5,-32.17 -16.11,-53.51l17.68 -9.54 131.7 244.21zm505.07 1076.23c46.9,115.58 47.54,223.27 1.68,322.95 -46.05,99.75 -123.38,169.39 -232.55,209.13 -93.08,33.88 -185.02,36.34 -275.76,7.55 -120.15,-38.2 -204.34,-123.23 -252.43,-255.36 -48.23,-132.48 -40.7,-251.11 22.53,-356.06 50.05,-82.97 123.43,-142.17 220.58,-177.53 109.17,-39.74 213.57,-35.62 313.37,12.29 99.98,47.85 167.3,126.86 202.58,237.03zm-32.06 19c-24.59,-67.54 -77.48,-106.33 -158.99,-116.68 -66.7,-8.21 -152.74,6.98 -258.22,45.38 -125.27,45.6 -209.89,101.55 -253.75,167.6 -30.57,46.13 -35.78,96.85 -15.58,152.36 13.61,37.38 34.06,65.35 61.1,83.8 34.71,23.41 80.81,34.91 137.98,34.22 57.17,-0.69 126.64,-15.92 208.06,-45.56 97.15,-35.36 166.57,-70.9 208.07,-106.54 41.69,-35.72 67.33,-71.24 76.88,-106.58 9.56,-35.33 7.77,-71.36 -5.57,-107.99zm441.22 1361.72l-19.46 4.99c-11.61,-26.3 -32.6,-47.14 -63.31,-62.25 -22.7,-10.85 -72.72,-22.84 -150.13,-36.15l-646.47 -111.24 -4.74 -18.5 537.48 -413.34c65.05,-50.01 102.59,-81.98 112.49,-95.7 10.05,-13.96 12.93,-36.04 8.84,-66.3l19.45 -4.99 92.66 361.68 -19.45 4.98 -3.13 -12.21c-8.41,-32.8 -18.37,-54.24 -29.79,-63.92 -7.73,-7.17 -17.2,-9.21 -28.26,-6.38 -6.87,1.76 -14.54,5.14 -23.1,10.59 -8.37,5.4 -30.58,21.86 -66.63,49.39l-335.54 258.14 373.71 63.02c45.85,7.56 76.2,11.79 91.16,12.23 14.99,0.63 27.36,-0.31 37.28,-2.85 11.25,-2.88 20.39,-8.47 27.65,-16.64 7.01,-8.31 11.5,-18.6 13.09,-31.41 2.2,-17.63 0.01,-39.64 -6.78,-66.16l19.46 -4.99 63.53 247.99zm-463.51 553.13l-54.74 -268.38 -81.67 -18.12c-27.25,-5.49 -49.15,-6.45 -65.55,-3.11 -21.81,4.45 -36.05,16.4 -42.96,35.69 -3.9,11.45 -3.42,37.48 1.64,78.05l-19.68 4.01 -51.99 -254.88 19.68 -4.02c9.83,26.53 26.05,46.94 48.35,60.68 22.53,13.9 65.99,27.94 130.31,41.75l667.33 149.28 2.2 10.81 -572.03 404.67c-54.81,38.71 -88.41,68.07 -100.58,88.24 -9.32,15.36 -12.41,34.69 -9.54,58.62l-19.68 4.01 -75.64 -370.84 19.68 -4.02 3.11 15.24c6.06,29.72 14.59,49.88 25.52,60.11 7.68,7.08 17.38,9.32 28.76,7 6.95,-1.42 13.89,-3.84 20.75,-7.65 3.12,-1.44 16.45,-9.98 39.56,-25.75l87.16 -61.39zm37.98 -26.63l238.11 -167.74 -285.32 -63.8 47.22 231.54zm644.63 1065.62l-210.4 21.37 -2.04 -19.98c47.33,-17.28 80.83,-34.34 100.47,-51.38 19.85,-17.06 34.6,-39.34 44.5,-66.67 5.38,-15.19 6.32,-41.02 2.62,-77.46l-5.97 -58.77 -601.83 61.14c-40.16,4.08 -65.02,8.78 -74.57,14.11 -9.55,5.33 -17.5,14.84 -23.67,28.13 -6.35,13.51 -8.32,31.13 -6.08,53.07l2.59 25.47 -19.98 2.03 -41.2 -405.53 19.98 -2.03 2.6 25.67c2.27,22.34 8.21,39.94 17.64,52.83 6.48,9.24 16.48,16.14 30.19,20.49 9.63,3.17 34.14,2.86 73.51,-1.14l601.83 -61.15 -5.73 -56.42c-5.29,-52.11 -20.3,-88.78 -44.85,-110.24 -34.32,-29.96 -80.51,-46.25 -138.8,-49.24l-2.27 -22.34 210.41 -21.37 71.06 699.4zm14.96 737.27l-261.11 6.01 -0.01 -23.63c65.37,-11.25 117.94,-38.65 157.7,-82.38 39.76,-43.93 59.63,-91.2 59.61,-142 -0.01,-39.39 -10.47,-70.5 -31.54,-93.33 -20.89,-23.03 -45.11,-34.44 -72.28,-34.43 -17.33,0 -32.69,4.15 -46.27,12.22 -17.92,11.03 -35.83,28.96 -53.54,53.78 -12.6,18.13 -35.22,59.88 -67.49,125.27 -44.86,91.78 -87.36,153.63 -127.33,185.55 -39.96,31.72 -85.64,47.49 -137.23,47.51 -65.37,0.02 -121.51,-25.56 -168.59,-76.53 -47.08,-50.98 -70.74,-115.76 -70.77,-194.33 -0.01,-24.62 2.54,-48.05 7.46,-69.91 4.91,-22.05 14.35,-49.63 28.31,-82.72 7.68,-18.51 11.41,-33.68 11.4,-45.68 -0.01,-10.05 -3.95,-20.49 -11.63,-31.7 -7.88,-11.22 -19.7,-20.27 -35.66,-27.16l-0.01 -20.08 295.38 -0.12 0.01 20.08c-82.89,16.97 -146.29,49.69 -189.79,97.95 -43.5,48.46 -65.33,100.45 -65.31,156.38 0.02,43.12 11.84,77.58 35.29,103.17 23.45,25.59 50.62,38.38 81.93,38.37 18.31,-0.01 36.24,-4.94 53.56,-14.79 17.33,-9.85 33.67,-24.63 49.4,-44.72 15.55,-20.09 35.82,-55.55 60.81,-106.36 34.82,-71.3 64.73,-122.52 89.34,-153.63 24.6,-30.93 52.16,-54.76 82.48,-71.52 30.52,-16.75 63.98,-25.04 100.42,-25.05 62.42,-0.02 115.6,22.79 159.53,68.66 43.93,45.67 65.81,103.36 65.84,173.07 0.01,25.4 -2.93,50.02 -9.02,73.85 -4.72,18.12 -13.18,40.18 -25.58,66.18 -12.39,26 -18.49,44.11 -18.49,54.55 0,10.05 2.96,17.92 9.07,23.63 6.11,5.7 20.88,11.22 44.11,16.13l0.01 17.73zm-813.66 593.24l-20.06 -1.01 20.45 -407.1 20.06 1.01 -1.3 25.76c-1.14,22.62 2.07,41.12 9.44,55.29 5,10.3 13.86,18.44 26.77,24.41 9.04,4.59 33.31,7.98 72.85,9.97l515.67 25.91c40.32,2.02 65.6,1.12 75.83,-2.51 10.25,-3.82 19.52,-11.83 27.64,-24.24 8.31,-12.4 12.92,-29.52 14.02,-51.55l1.3 -25.76 20.06 1.01 -20.45 407.1 -20.06 -1.01 1.3 -25.76c1.12,-22.42 -2.1,-40.72 -9.47,-54.9 -5.01,-10.11 -13.86,-18.43 -26.74,-24.8 -9.04,-4.6 -33.32,-7.98 -72.85,-9.97l-515.66 -25.91c-40.32,-2.03 -65.6,-1.13 -75.85,2.7 -10.26,4.02 -19.54,12.03 -27.64,24.44 -8.32,12.4 -12.92,29.52 -14.01,51.15l-1.29 25.77zm617.18 1036.03l-19.86 -3.03c0.38,-26.04 -4.04,-46.64 -13.42,-62.21 -13.08,-21.31 -52.3,-57.98 -117.48,-109.95l-255.84 -211.13 -187.46 -28.59c-40.29,-6.15 -65.51,-8 -75.9,-5.2 -10.55,2.57 -20.39,9.64 -29.66,20.77 -9.49,11.3 -15.68,27.09 -18.83,47.72l-6.62 43.41 -19.86 -3.03 66.1 -433.33 19.86 3.02 -6.15 40.3c-3.44,22.58 -2.12,41.31 3.84,55.76 3.93,10.76 11.92,19.75 24.08,27.57 8.53,5.49 32.34,11.31 71.47,17.28l155.53 23.72 360.68 -131.43c71.32,-26.17 113.76,-45.79 127.69,-58.8 13.93,-13.02 23,-31.94 27.16,-56.61l19.85 3.03 -56.57 370.84 -19.85 -3.03 2.52 -16.55c3.42,-22.39 2.51,-38.66 -2.74,-48.63 -5.06,-9.93 -11.38,-15.48 -18.77,-16.61 -13.82,-2.11 -51.18,7.73 -111.72,29.77l-276.81 101.39 211.14 175.03c52.56,43.28 88.27,66.45 107.15,69.33 10.51,1.6 19.82,-1.96 28.35,-10.81 11.5,-11.4 20.96,-34.25 28.19,-68.61l19.85 3.03 -35.93 235.55zm-671.9 378l68.35 -265.25 -65.49 -52.05c-22.09,-16.87 -41.35,-27.33 -57.56,-31.51 -21.55,-5.55 -39.59,-1.05 -54.26,13.27 -8.52,8.58 -19.48,32.2 -32.7,70.88l-19.45 -5.01 64.91 -251.9 19.45 5.01c-2.79,28.16 2.86,53.61 16.88,75.73 14.17,22.36 47.08,54.03 98.85,94.62l534.51 426.49 -2.75 10.68 -691.49 113.22c-66.23,10.79 -109.3,22.46 -129.07,35.27 -15.11,9.73 -26.35,25.74 -34.25,48.51l-19.45 -5.01 94.44 -366.5 19.45 5.01 -3.88 15.06c-7.56,29.37 -8.73,51.23 -3.39,65.21 3.8,9.72 11.54,15.99 22.79,18.89 6.87,1.77 14.17,2.63 22,2.21 3.43,0.07 19.17,-1.77 46.85,-5.82l105.24 -17.01zm45.81 -7.31l287.52 -46.5 -228.56 -182.33 -58.96 228.83zm-367.83 1156.79l-247.1 -122.28 239.22 -650.98 18.86 6.93 -8.9 24.21c-7.81,21.26 -10.26,39.87 -7.43,55.6 1.72,11.32 7.75,21.73 18.3,31.27 7.26,7.07 29.43,17.53 66.59,31.18l484.63 178.09c37.89,13.92 62.3,20.58 73.15,20.17 10.92,-0.6 22.16,-5.49 33.6,-14.93 11.62,-9.37 21.11,-24.34 28.72,-45.04l8.9 -24.21 18.85 6.93 -143.86 391.48 -18.85 -6.93 11.82 -32.16c7.81,-21.25 10.24,-39.87 7.49,-55.78 -1.71,-11.33 -7.68,-21.92 -18.03,-32.01 -7.26,-7.08 -29.43,-17.53 -66.58,-31.19l-469.11 -172.39c-37.52,-13.79 -62.36,-20.4 -74.28,-19.96 -11.91,0.45 -22.61,6.16 -32.41,16.83 -6.47,7.9 -16.15,29.1 -28.79,63.48l-22.41 60.99c-14.27,38.82 -19.31,73.68 -15.14,104.58 4.17,30.9 17.51,61.4 40.15,91.12 22.65,29.72 59.68,63.68 111.17,101.69l-8.55 23.29zm-303.11 540.23l119.4 -246.52 -53.91 -63.97c-18.32,-20.91 -35.14,-34.96 -50.2,-42.26 -20.03,-9.7 -38.6,-8.85 -55.81,2.29 -10.05,6.73 -25.46,27.71 -46.06,63.03l-18.08 -8.76 113.4 -234.11 18.08 8.75c-8.29,27.06 -7.79,53.12 1.59,77.57 9.47,24.72 35.48,62.26 78.21,112.28l439.72 523.69 -4.81 9.93 -700.22 -25.62c-67.05,-2.51 -111.57,0.43 -133.49,9.07 -16.73,6.55 -30.92,20.03 -43.17,40.79l-18.08 -8.76 164.99 -340.62 18.08 8.76 -6.78 13.99c-13.22,27.3 -18.68,48.5 -16.21,63.26 1.81,10.29 8.15,17.96 18.61,23.02 6.38,3.09 13.37,5.38 21.13,6.52 3.36,0.75 19.14,2.05 47.08,3.55l106.53 4.12zm46.35 1.88l291.04 11.22 -188.03 -223.89 -103.01 212.67zm-294 734.34l-188.49 -115.26c-35.95,-21.98 -60.13,-33.76 -72.15,-34.88 -12.08,-1.38 -24.3,1.99 -36.62,9.69 -12.43,7.86 -28.02,26.95 -46.71,57.53l-17.14 -10.48 208.95 -341.71 17.14 10.48c-18.9,30.91 -28.89,53.66 -29.85,68.07 -1.07,14.58 1.76,26.93 8.17,36.84 6.47,10.19 27.81,26.25 63.76,48.23l436.46 266.89c36.12,22.08 60.14,33.77 72.15,34.88 12.08,1.38 24.3,-1.99 36.63,-9.69 12.43,-7.87 28.02,-26.95 46.71,-57.53l17.13 10.48 -189.84 310.46c-49.41,80.81 -91.01,136.38 -125.18,166.96 -34,30.69 -73.36,48.62 -118.08,53.82 -44.56,5.3 -87.03,-4.51 -127.52,-29.27 -49.22,-30.1 -79.16,-72.87 -89.74,-128.04 -6.63,-35.21 -2.5,-76.32 12.38,-123.3l-324.19 21.73c-42.01,3.4 -69.41,7.42 -82.07,11.91 -18.3,7.27 -33.49,19.68 -45.39,36.87l-18.15 -11.09 128.62 -210.34 436.21 -29.4 26.81 -43.85zm326.59 199.7l-291.31 -178.13 -17.15 28.06c-27.94,45.69 -44.71,82.53 -50.34,110.25 -5.47,27.81 -1.23,54.87 12.53,81.05 13.76,26.19 38.14,50.11 73.09,71.47 50.74,31.03 95.49,42.01 134.27,32.94 38.78,-9.06 74.3,-39.97 106.65,-92.89l32.26 -52.76zm-1243.09 1738.08l-15.44 -12.84c14.5,-24.83 19.08,-54.05 13.31,-87.78 -4.52,-24.76 -24.13,-72.31 -58.72,-142.82l-288.84 -588.95 12.22 -14.69 649.95 193.14c78.64,23.39 126.56,35.06 143.47,35.04 17.2,-0.05 36.78,-10.66 58.89,-31.71l15.45 12.84 -238.7 287.09 -15.44 -12.84 8.06 -9.69c21.65,-26.04 33.18,-46.67 34.32,-61.61 1.28,-10.46 -2.62,-19.33 -11.4,-26.63 -5.45,-4.53 -12.69,-8.76 -22.13,-12.51 -9.28,-3.62 -35.64,-11.96 -79.07,-25.03l-405.83 -120.52 168.02 339.71c20.75,41.58 35.12,68.64 43.53,81.01 8.28,12.53 16.28,21.99 24.16,28.54 8.93,7.43 18.82,11.55 29.69,12.65 10.84,0.81 21.81,-1.59 33.12,-7.81 15.57,-8.56 32.12,-23.23 49.62,-44.28l15.44 12.84 -163.67 196.84zm-754.36 -69.08l194.44 -192.93 -29.63 -78.23c-10.35,-25.8 -21.55,-44.64 -33.33,-56.52 -15.68,-15.8 -33.48,-21.15 -53.41,-16.36 -11.71,3.01 -33.21,17.7 -64.36,44.17l-14.15 -14.26 184.66 -183.22 14.15 14.26c-16.8,22.77 -24.97,47.52 -24.24,73.7 0.73,26.46 12.81,70.51 36.52,131.87l241.03 639.93 -7.83 7.77 -652.04 -256.53c-62.42,-24.62 -105.4,-36.62 -128.94,-35.74 -17.97,0.62 -35.82,8.63 -54.26,24.15l-14.15 -14.26 268.67 -266.57 14.15 14.26 -11.04 10.96c-21.53,21.36 -33.72,39.55 -36.28,54.3 -1.71,10.3 1.73,19.64 9.92,27.89 4.99,5.04 10.82,9.51 17.77,13.16 2.91,1.82 17.37,8.28 43.23,18.96l99.13 39.24zm43.1 17.16l270.82 107.16 -103.08 -273.6 -167.74 166.44zm-577.62 1168.35l-112.78 -863.57 -115.19 94.31c-54.39,44.53 -89.62,79.23 -105.79,103.92 -26.62,39.61 -40.87,84.36 -42.77,134.27 -2.02,49.76 11.87,102.78 41.63,159.33l-17.36 14.22 -155.11 -239.49 554.15 -453.71 112.92 864.98 89.9 -73.6c34.74,-28.45 56.87,-48.35 66.1,-59.46 17.75,-20.9 31.17,-44.61 40.1,-71.01 8.81,-26.55 11.57,-54.26 8.01,-83.16 -3.56,-28.9 -13.82,-60.71 -30.8,-95.43l16.61 -13.6 128.5 190.52 -478.11 391.46zm-955.3 -287.23l-11.19 -16.68 338.58 -226.98 11.18 16.68 -21.42 14.36c-18.81,12.61 -31.72,26.25 -38.68,40.62 -5.27,10.17 -6.5,22.14 -3.57,36.06 1.72,9.98 13.51,31.48 35.55,64.35l287.51 428.86c22.48,33.53 38.32,53.26 47.34,59.3 9.19,5.93 21.16,8.57 35.96,7.67 14.91,-0.75 31.39,-7.29 49.71,-19.58l21.42 -14.36 11.19 16.68 -338.58 226.98 -11.18 -16.68 21.43 -14.36c18.64,-12.5 31.39,-26.03 38.34,-40.41 5.11,-10.06 6.49,-22.13 3.89,-36.27 -1.72,-9.99 -13.51,-31.48 -35.55,-64.36l-287.51 -428.86c-22.48,-33.54 -38.32,-53.27 -47.5,-59.2 -9.35,-5.82 -21.33,-8.47 -36.12,-7.55 -14.91,0.75 -31.39,7.29 -49.38,19.35l-21.43 14.37zm-187.85 503l-104.88 -194.47c-20,-37.09 -34.96,-59.44 -44.79,-66.46 -9.74,-7.27 -22,-10.51 -36.52,-10.06 -14.7,0.54 -37.78,9.19 -69.32,26.2l-9.54 -17.68 352.53 -190.12 9.54 17.68c-31.89,17.2 -51.97,31.83 -60.05,43.8 -8.26,12.06 -12.03,24.16 -11.49,35.95 0.46,12.06 10.82,36.67 30.83,73.76l242.84 450.28c20.1,37.27 34.97,59.45 44.8,66.46 9.74,7.27 21.99,10.51 36.52,10.06 14.7,-0.54 37.78,-9.18 69.32,-26.2l9.53 17.67 -320.29 172.74c-83.37,44.96 -147.29,72.05 -192.2,81.28 -44.81,9.41 -87.85,5.1 -129.12,-12.92 -41.17,-17.84 -72.93,-47.7 -95.46,-89.47 -27.39,-50.78 -31.73,-102.81 -13.11,-155.8 11.99,-33.77 36.25,-67.21 72.75,-100.32l-291.07 -144.38c-38.01,-18.2 -63.71,-28.52 -76.91,-31.01 -19.47,-2.92 -38.85,0.15 -57.78,9.02l-10.1 -18.72 217 -117.03 391.74 194.13 45.24 -24.39zm181.71 336.93l-162.08 -300.54 -28.95 15.61c-47.14,25.42 -80.17,48.82 -98.98,69.94 -18.73,21.29 -28.69,46.79 -29.97,76.34 -1.29,29.56 7.74,62.49 27.19,98.55 28.23,52.34 61.38,84.36 99.45,96.04 38.07,11.69 84.32,2.85 138.91,-26.59l54.42 -29.35zm-1459.68 177.3l-78.98 -264.14 639.37 -268.71 7.78 18.52 -23.78 9.99c-20.88,8.78 -36.16,19.68 -45.74,32.46 -7.12,8.97 -10.62,20.49 -10.4,34.71 -0.22,10.14 7.23,33.49 22.57,69.98l200.05 475.99c15.64,37.22 27.41,59.61 35.11,67.27 7.88,7.58 19.13,12.47 33.83,14.41 14.77,2.11 32.2,-1.15 52.53,-9.69l23.78 -9.99 7.77 18.51 -384.49 161.6 -7.78 -18.51 31.59 -13.28c20.87,-8.77 36.15,-19.68 45.92,-32.54 7.12,-8.97 10.8,-20.56 11.13,-35.01 0.23,-10.13 -7.24,-33.48 -22.57,-69.97l-193.64 -460.75c-15.49,-36.85 -27.58,-59.53 -36.04,-67.95 -8.45,-8.4 -19.93,-12.34 -34.41,-12.23 -10.19,0.65 -32.3,8.02 -66.07,22.21l-59.9 25.18c-38.13,16.02 -67.07,36.09 -86.84,60.21 -19.77,24.12 -32.99,54.67 -39.3,91.49 -6.31,36.83 -5.91,87.07 1.37,150.66l-22.87 9.61zm-601.02 -55.67l-6.87 -18.88 383.03 -139.43 6.87 18.87 -24.23 8.82c-21.29,7.75 -37.08,17.89 -47.27,30.2 -7.55,8.61 -11.6,19.94 -12.08,34.16 -0.72,10.11 5.59,33.8 19.13,70.99l176.61 485.17c13.81,37.93 24.47,60.88 31.79,68.9 7.51,7.96 18.5,13.39 33.09,16.04 14.65,2.84 32.22,0.43 52.94,-7.12l24.24 -8.82 6.87 18.87 -383.03 139.43 -6.87 -18.87 24.24 -8.82c21.09,-7.68 36.7,-17.77 46.9,-30.06 7.37,-8.55 11.6,-19.94 12.45,-34.29 0.72,-10.11 -5.59,-33.8 -19.14,-70.99l-176.61 -485.17c-13.81,-37.94 -24.47,-60.88 -31.97,-68.84 -7.69,-7.89 -18.68,-13.32 -33.27,-15.97 -14.66,-2.84 -32.22,-0.42 -52.57,6.98l-24.24 8.83z"/>
    <path class="fil11" d="M33738.68 43457.98l-68.32 -266.68 19.46 -4.99c43.56,66.09 95.26,111.59 154.92,136.55 59.66,24.97 119.24,29.83 178.57,14.63 56.84,-14.56 99.9,-42.47 129.51,-84 29.61,-41.54 44.93,-92.82 46.01,-153.68 1.03,-61.04 -6.11,-121.42 -21.45,-181.31 -18.62,-72.68 -43.29,-134.05 -74.48,-184.41 -31.2,-50.35 -69.12,-83.32 -113.87,-99.29 -44.75,-15.98 -93.24,-17.18 -145.69,-3.74 -18.31,4.69 -36.52,11.39 -54.56,20.28 -18.29,8.76 -36.47,19.51 -54.6,32.08l40.17 156.8c7.77,30.33 14.9,49.44 21.2,57.38 6.26,7.75 16.94,13.75 31.53,17.54 14.64,3.97 31.01,3.64 49.14,-1l19.46 -4.99 4.99 19.46 -368.55 94.41 -4.99 -19.46c27.55,-9.09 46.23,-17.94 55.77,-26.68 9.36,-8.7 15.45,-20.62 17.85,-35.88 1.63,-7.94 -1.21,-26.11 -8.39,-54.16l-40.17 -156.8c42.93,-33.97 89.14,-63.09 138.57,-87.54 49.48,-24.26 102.43,-43.72 158.7,-58.14 71.73,-18.38 133.92,-23.94 186.46,-16.46 52.49,7.29 101.05,22.29 145.45,44.86 44.4,22.57 82.02,51.15 112.64,85.79 39.28,44.62 67.01,98.9 83.28,162.43 29.22,114.07 13.8,220.48 -46.19,319.59 -60.18,99.17 -151.02,164.31 -272.53,195.44 -37.77,9.68 -72.27,15.47 -104.12,17.32 -17.18,1.15 -45.85,-0.45 -86.23,-4.95 -40.2,-4.54 -63.7,-5.84 -70.38,-4.13 -10.49,2.69 -19.24,9 -26.25,18.92 -7.01,9.92 -11.5,26.52 -13.46,49.8l-19.46 4.99zm-784.48 -667.82l-3.03 -19.86 402.96 -61.46 3.03 19.86 -25.5 3.89c-22.39,3.42 -39.87,10.26 -52.28,20.32 -9.1,6.97 -15.29,17.27 -18.56,31.12 -2.69,9.77 -1.15,34.23 4.81,73.36l77.85 510.42c6.08,39.91 12.03,64.5 17.63,73.8 5.8,9.28 15.51,16.76 29.28,22.23 13.81,5.66 31.51,6.75 53.31,3.42l25.5 -3.89 3.02 19.85 -402.96 61.46 -3.03 -19.85 25.5 -3.89c22.19,-3.39 39.48,-10.21 51.88,-20.26 8.9,-6.94 15.29,-17.27 18.95,-31.17 2.69,-9.77 1.15,-34.24 -4.81,-73.37l-77.85 -510.41c-6.08,-39.91 -12.03,-64.5 -17.82,-73.77 -5.99,-9.24 -15.7,-16.73 -29.48,-22.19 -13.81,-5.66 -31.51,-6.75 -52.92,-3.48l-25.5 3.89z"/>
   </g>
  </g>
 </g>
</svg>
